<svg xmlns="http://www.w3.org/2000/svg" xmlns:xlink="http://www.w3.org/1999/xlink" xmlns:svgjs="http://svgjs.dev/svgjs" id="Layer_3" height="300" viewBox="0 0 64 64" width="300"><g width="100%" height="100%" transform="matrix(1,0,0,1,0,0)"><g><path d="m62 43h-2.349c.225-.637.349-1.309.349-2.002 0-1.22-.368-2.354-.996-3.302.245-.193.482-.394.703-.615 1.457-1.457 2.293-3.475 2.293-5.535v-1.172c0-.553-.447-1-1-1h-1.172c-.933 0-1.854.18-2.722.503-.536-.866-1.282-1.595-2.174-2.096.046-.262.068-.522.068-.783 0-2.013-1.225-3.811-3.021-4.589.014-.138.021-.275.021-.411 0-2.757-2.243-5-5-5s-5 2.243-5 5c0 .136.007.272.021.411-1.796.779-3.021 2.576-3.021 4.589 0 .261.022.521.067.782-.677.38-1.26.901-1.744 1.503-.397-.356-.845-.657-1.344-.874.014-.138.021-.275.021-.411 0-2.757-2.243-5-5-5v-16.998c0-.553-.447-1-1-1h-28c-.553 0-1 .447-1 1v54c0 .553.447 1 1 1h23.104c2.002 1.26 4.362 2 6.896 2h16c6.83 0 12.435-5.299 12.949-12h1.051c.553 0 1-.447 1-1v-6c0-.553-.447-1-1-1zm-11.453 0c-.353-.606-.547-1.287-.547-2.002 0-2.206 1.794-4 4-4s4 1.794 4 4c0 .714-.194 1.395-.548 2.002zm-9.999 0c-.354-.607-.548-1.288-.548-2.002 0-2.206 1.794-4 4-4s4 1.794 4 4c0 .714-.194 1.395-.548 2.002zm4.452-8.002c0-2.206 1.794-4 4-4s4 1.794 4 4c0 .031-.008.061-.009.092-1.662.283-3.093 1.247-3.991 2.599-.898-1.352-2.329-2.315-3.991-2.599-.001-.031-.009-.061-.009-.092zm15-3.624v.172c0 1.534-.622 3.036-1.707 4.121-.205.205-.43.391-.664.564-.758-.578-1.655-.979-2.633-1.143 0-.03.004-.06.004-.09 0-.316-.032-.625-.079-.928.226-.356.487-.69.786-.989 1.085-1.085 2.587-1.707 4.121-1.707zm-19.402-2.107c.511-.192.772-.758.589-1.271-.125-.353-.187-.68-.187-.998 0-1.408.999-2.642 2.376-2.933.271-.058.506-.225.649-.462.143-.236.182-.522.105-.789-.088-.316-.13-.575-.13-.816 0-1.654 1.346-3 3-3s3 1.346 3 3c0 .241-.042.5-.131.816-.076.267-.037.553.105.789.144.237.379.404.649.462 1.378.291 2.377 1.525 2.377 2.933 0 .318-.062.645-.187.997-.184.514.078 1.079.589 1.271.792.298 1.463.848 1.926 1.541-.367.257-.717.54-1.036.859-.065.065-.119.138-.182.205-1.056-1.72-2.949-2.874-5.111-2.874-3.309 0-6 2.691-6 6 0 .03.004.06.005.09-.699.117-1.357.353-1.952.69-.532-.824-1.261-1.515-2.12-1.998.046-.26.068-.52.068-.781 0-.708-.159-1.386-.433-2.006.462-.779 1.172-1.402 2.031-1.725zm-6.598-1.269c0 .241-.042.5-.131.816-.076.267-.037.553.105.789.144.237.379.404.649.462 1.378.291 2.377 1.525 2.377 2.933 0 .318-.062.645-.187.997-.184.514.078 1.079.589 1.271.887.334 1.615.987 2.074 1.802-.916 1.054-1.476 2.427-1.476 3.93 0 .693.123 1.365.349 2.002h-2.349v-.002h-4v-6.586l2.707-2.707-1.414-1.414-1.293 1.293v-2.586h-2v6.586l-1.293-1.293-1.414 1.414 2.707 2.707v2.586h-4c-2.206 0-4-1.794-4-4 0-1.672 1.02-3.137 2.598-3.731.511-.192.772-.758.589-1.271-.125-.353-.187-.68-.187-.998 0-1.408.999-2.642 2.376-2.933.271-.058.506-.225.649-.462.143-.236.182-.522.105-.789-.088-.316-.13-.575-.13-.816 0-1.654 1.346-3 3-3s3 1.346 3 3zm-8 0c0 .136.007.272.021.411-1.796.779-3.021 2.576-3.021 4.589 0 .261.022.521.067.782-1.865 1.051-3.067 3.049-3.067 5.218 0 1.538.587 2.939 1.542 4.002h-3.542c-.553 0-1 .447-1 1v6c0 .553.447 1 1 1h1.051c.052.683.158 1.35.313 2h-16.364v-34.586l1-1c.535-.533 1.465-.533 2 0l.586.586c1.289 1.289 3.539 1.289 4.828 0l.586-.586c.535-.533 1.465-.533 2 0l.586.586c1.289 1.289 3.539 1.289 4.828 0l.586-.586c.535-.533 1.465-.533 2 0l.586.586c.645.645 1.502 1 2.414 1s1.77-.355 2.414-1l.586-.586c.268-.267.622-.414 1-.414v6.422c-1.763.774-3 2.531-3 4.576zm3-20.998v8c-.912 0-1.77.355-2.414 1l-.586.586c-.535.533-1.465.533-2 0l-.586-.586c-1.289-1.289-3.539-1.289-4.828 0l-.586.586c-.535.533-1.465.533-2 0l-.586-.586c-1.289-1.289-3.539-1.289-4.828 0l-.586.586c-.535.533-1.465.533-2 0l-.586-.586c-1.162-1.162-3.098-1.267-4.414-.334v-8.666zm-26 48h17.003c.626 1.497 1.529 2.848 2.638 4h-19.641zm45 6h-16c-5.728 0-10.442-4.402-10.949-10h37.899c-.508 5.598-5.222 10-10.95 10zm13-12h-42v-4h42z" fill="#a2b190" fill-opacity="1" data-original-color="#000000ff" stroke="none" stroke-opacity="1"></path><path d="m44.828 15h1.172c.553 0 1-.447 1-1v-1.172c0-2.061-.836-4.078-2.293-5.535s-3.475-2.293-5.535-2.293h-1.172c-.553 0-1 .447-1 1v1.172c0 2.061.836 4.078 2.293 5.535s3.475 2.293 5.535 2.293zm-5.828-8h.172c1.534 0 3.036.622 4.121 1.707s1.707 2.587 1.707 4.121v.172h-.172c-1.534 0-3.036-.622-4.121-1.707s-1.707-2.587-1.707-4.121z" fill="#a2b190" fill-opacity="1" data-original-color="#000000ff" stroke="none" stroke-opacity="1"></path><path d="m50 11h1.172c2.061 0 4.078-.836 5.535-2.293s2.293-3.475 2.293-5.535v-1.172c0-.553-.447-1-1-1h-1.172c-2.061 0-4.078.836-5.535 2.293s-2.293 3.475-2.293 5.535v1.172c0 .553.447 1 1 1zm1-2.172c0-1.534.622-3.036 1.707-4.121s2.587-1.707 4.121-1.707h.172v.172c0 1.534-.622 3.036-1.707 4.121s-2.587 1.707-4.121 1.707h-.172z" fill="#a2b190" fill-opacity="1" data-original-color="#000000ff" stroke="none" stroke-opacity="1"></path><path d="m8 25c-1.654 0-3 1.346-3 3s1.346 3 3 3 3-1.346 3-3-1.346-3-3-3zm0 4c-.552 0-1-.448-1-1s.448-1 1-1 1 .448 1 1-.448 1-1 1z" fill="#a2b190" fill-opacity="1" data-original-color="#000000ff" stroke="none" stroke-opacity="1"></path><path d="m18 29c-1.654 0-3 1.346-3 3s1.346 3 3 3 3-1.346 3-3-1.346-3-3-3zm0 4c-.552 0-1-.448-1-1s.448-1 1-1 1 .448 1 1-.448 1-1 1z" fill="#a2b190" fill-opacity="1" data-original-color="#000000ff" stroke="none" stroke-opacity="1"></path><path d="m8 39c-1.654 0-3 1.346-3 3s1.346 3 3 3 3-1.346 3-3-1.346-3-3-3zm0 4c-.552 0-1-.448-1-1s.448-1 1-1 1 .448 1 1-.448 1-1 1z" fill="#a2b190" fill-opacity="1" data-original-color="#000000ff" stroke="none" stroke-opacity="1"></path></g></g></svg>