<svg xmlns="http://www.w3.org/2000/svg" id="Capa_2" data-name="Capa 2" viewBox="0 0 108.96 129.51"><defs><style>      .cls-1 {        fill: #a1b08f;        fill-rule: evenodd;        stroke-width: 0px;      }      .cls-2 {        fill: none;        stroke: #fff;        stroke-miterlimit: 22.93;        stroke-width: 2.13px;      }    </style></defs><g id="Capa_1-2" data-name="Capa 1"><path class="cls-1" d="M1.06,47.8v35.44c0,1.39,3.13,4.57,4.37,6.16l13.17,16.11c.53.57.96.84.96,1.87v16.95h-4.11v4.11h36.98v-4.11h-4.11v-30.82c0-1.44-2.02-2.92-2.89-3.79l-17.21-17.21c-4.89-4.89-4.59-5.71-10.72-5.71v-19.26c0-3.65-3.39-7.45-8.73-7.45-3.96,0-7.7,3.74-7.7,7.7ZM11.34,74.26c0,4.98,2.37,6.1,5.84,9.57l7,7.13,3.14-3.02c-.45-.31-9.84-9.41-10.9-10.8-2.06-2.72-.49-5.57,2.25-6.09,2.1-.4,3.48,1.32,4.54,2.38l17.59,17.59c.67.67,3.4,2.95,3.4,3.79v29.53h-20.54v-18.49c0-1.39-3.13-4.57-4.37-6.16l-13.17-16.11c-.53-.57-.96-.84-.96-1.87v-32.61c0-6.55,8.22-6.34,8.22,0v19.52c0,1.74-2.05,2.1-2.05,5.65Z"></path><path class="cls-2" d="M1.06,47.8v35.44c0,1.39,3.13,4.57,4.37,6.16l13.17,16.11c.53.57.96.84.96,1.87v16.95h-4.11v4.11h36.98v-4.11h-4.11v-30.82c0-1.44-2.02-2.92-2.89-3.79l-17.21-17.21c-4.89-4.89-4.59-5.71-10.72-5.71v-19.26c0-3.65-3.39-7.45-8.73-7.45-3.96,0-7.7,3.74-7.7,7.7ZM11.34,74.26c0,4.98,2.37,6.1,5.84,9.57l7,7.13,3.14-3.02c-.45-.31-9.84-9.41-10.9-10.8-2.06-2.72-.49-5.57,2.25-6.09,2.1-.4,3.48,1.32,4.54,2.38l17.59,17.59c.67.67,3.4,2.95,3.4,3.79v29.53h-20.54v-18.49c0-1.39-3.13-4.57-4.37-6.16l-13.17-16.11c-.53-.57-.96-.84-.96-1.87v-32.61c0-6.55,8.22-6.34,8.22,0v19.52c0,1.74-2.05,2.1-2.05,5.65Z"></path><path class="cls-1" d="M91.46,47.8v19c-6.08,0-5.76.76-10.59,5.59l-17.21,17.21c-.88.88-3.02,2.47-3.02,3.92v30.82h-4.11v4.11h36.98v-4.11h-4.11v-16.95c0-.94.34-1.22.83-1.74l15.61-19.06c.64-.83,2.06-2.02,2.06-3.34v-35.7c0-3.65-3.39-7.45-8.73-7.45-3.96,0-7.7,3.74-7.7,7.7ZM95.57,68.61v-19.52c0-6.55,8.22-6.34,8.22,0v32.61c0,1.35-3.58,5.07-4.42,6.1l-12.01,14.7c-.64.83-2.06,2.02-2.06,3.34v18.49h-20.54v-29.53c0-.85,9.22-9.6,9.95-10.34,3.44-3.44,6.7-6.7,10.14-10.14,1.49-1.49,3.3-4.17,6.25-3.05,2.83,1.08,2.92,4.39.95,6.39l-10.34,10.2,2.88,3.03,7.07-6.94c3.5-3.5,5.97-4.68,5.97-9.69,0-3.55-2.05-3.91-2.05-5.65Z"></path><path class="cls-2" d="M91.46,47.8v19c-6.08,0-5.76.76-10.59,5.59l-17.21,17.21c-.88.88-3.02,2.47-3.02,3.92v30.82h-4.11v4.11h36.98v-4.11h-4.11v-16.95c0-.94.34-1.22.83-1.74l15.61-19.06c.64-.83,2.06-2.02,2.06-3.34v-35.7c0-3.65-3.39-7.45-8.73-7.45-3.96,0-7.7,3.74-7.7,7.7ZM95.57,68.61v-19.52c0-6.55,8.22-6.34,8.22,0v32.61c0,1.35-3.58,5.07-4.42,6.1l-12.01,14.7c-.64.83-2.06,2.02-2.06,3.34v18.49h-20.54v-29.53c0-.85,9.22-9.6,9.95-10.34,3.44-3.44,6.7-6.7,10.14-10.14,1.49-1.49,3.3-4.17,6.25-3.05,2.83,1.08,2.92,4.39.95,6.39l-10.34,10.2,2.88,3.03,7.07-6.94c3.5-3.5,5.97-4.68,5.97-9.69,0-3.55-2.05-3.91-2.05-5.65Z"></path><path class="cls-1" d="M22.12,32.4l2.88,3.03,4.76-4.63.06,27.02c0,2.94-.8,6.93,2.05,6.93h45.2c2.85,0,2.05-4,2.05-6.93v-26.97l4.69,4.56,3.08-2.96c-1.24-.85-25.02-24.89-27.99-27.86-5.3-5.3-3.7-5.16-12.84,3.98-2.03,2.03-22.8,23.05-23.95,23.82ZM33.93,27c0-.84,9.34-9.72,10.08-10.47,1.62-1.62,9.4-9.62,10.46-10.34,1.14.77,15.5,15.37,18.04,17.91.57.57,2.5,2.1,2.5,2.89v33.64h-41.09V27Z"></path><path class="cls-2" d="M22.12,32.4l2.88,3.03,4.76-4.63.06,27.02c0,2.94-.8,6.93,2.05,6.93h45.2c2.85,0,2.05-4,2.05-6.93v-26.97l4.69,4.56,3.08-2.96c-1.24-.85-25.02-24.89-27.99-27.86-5.3-5.3-3.7-5.16-12.84,3.98-2.03,2.03-22.8,23.05-23.95,23.82ZM33.93,27c0-.84,9.34-9.72,10.08-10.47,1.62-1.62,9.4-9.62,10.46-10.34,1.14.77,15.5,15.37,18.04,17.91.57.57,2.5,2.1,2.5,2.89v33.64h-41.09V27Z"></path><path class="cls-1" d="M38.04,37.28c0,5.07,2.86,6.58,7.38,11.11l6.42,6.42c3.11,3.13,3.35,1.92,7.32-2.05,1.52-1.52,2.85-2.85,4.37-4.37,4.51-4.51,7.38-6.03,7.38-11.11,0-3.93-3.52-7.45-7.45-7.45-2.25,0-3.99.28-5.72,1.98-1.08,1.06-2.08,2.36-3.27,3.15-3.54-2.37-3.1-5.14-8.99-5.14-3.93,0-7.45,3.52-7.45,7.45ZM54.48,40.1c1.38,0,2.35-1.45,3.15-2.25,1.99-1.99,3.77-4.7,6.76-3.56.77.29,1.19.64,1.61,1.22,2.43,3.36-1.53,6.02-4.91,9.4-1.58,1.58-5.08,5.46-6.61,6.48-1.45-.97-4.62-4.5-6.1-5.97-1.42-1.42-5.08-4.61-5.81-6.27-1.5-3.4,2.15-6.35,5.33-4.55,1.86,1.05,4.56,5.49,6.58,5.49Z"></path><path class="cls-2" d="M38.04,37.28c0,5.07,2.86,6.58,7.38,11.11l6.42,6.42c3.11,3.13,3.35,1.92,7.32-2.05,1.52-1.52,2.85-2.85,4.37-4.37,4.51-4.51,7.38-6.03,7.38-11.11,0-3.93-3.52-7.45-7.45-7.45-2.25,0-3.99.28-5.72,1.98-1.08,1.06-2.08,2.36-3.27,3.15-3.54-2.37-3.1-5.14-8.99-5.14-3.93,0-7.45,3.52-7.45,7.45ZM54.48,40.1c1.38,0,2.35-1.45,3.15-2.25,1.99-1.99,3.77-4.7,6.76-3.56.77.29,1.19.64,1.61,1.22,2.43,3.36-1.53,6.02-4.91,9.4-1.58,1.58-5.08,5.46-6.61,6.48-1.45-.97-4.62-4.5-6.1-5.97-1.42-1.42-5.08-4.61-5.81-6.27-1.5-3.4,2.15-6.35,5.33-4.55,1.86,1.05,4.56,5.49,6.58,5.49Z"></path></g></svg>