<svg xmlns="http://www.w3.org/2000/svg" xmlns:xlink="http://www.w3.org/1999/xlink" xmlns:svgjs="http://svgjs.dev/svgjs" height="300" viewBox="0 0 409 409.6" width="300"><g width="100%" height="100%" transform="matrix(1,0,0,1,0,0)"><path d="m116.207031 335.789062v16.382813c0 2.828125 2.289063 5.121094 5.121094 5.121094 2.828125 0 5.117187-2.292969 5.117187-5.121094v-16.382813c32.539063-2.675781 58.226563-30.46875 58.226563-64.3125 0-47.632812-57.410156-101.640624-59.855469-103.917968-1.988281-1.847656-5.078125-1.824219-7.039062.058594-2.441406 2.351562-59.789063 58.074218-59.789063 103.859374 0 33.84375 25.683594 61.636719 58.21875 64.3125zm-31.855469-110.15625 31.855469 29.816407v39.839843l-44.855469-41.980468c2.890626-9.285156 7.546876-18.707032 13-27.675782zm87.082032 27.554688-44.988282 42.101562v-39.839843l32.164063-30.101563c5.40625 8.945313 9.996094 18.402344 12.824219 27.839844zm-44.988282 72.359375v-16.230469l47.546876-44.5c.277343 2.238282.441406 4.460938.441406 6.660156 0 28.191407-21.101563 51.425782-47.988282 54.070313zm26.558594-108.976563-26.558594 24.851563v-57.644531c7.050782 7.488281 17.300782 19.179687 26.558594 32.792968zm-36.796875-32.542968v57.394531l-26.246093-24.5625c9.167968-13.492187 19.261718-25.234375 26.246093-32.832031zm-47.523437 80.808594 47.523437 44.480468v16.230469c-26.886719-2.644531-47.980469-25.878906-47.980469-54.070313 0-2.179687.160157-4.398437.457032-6.640624zm0 0" fill="#a2b190" fill-opacity="1" data-original-color="#000000ff" stroke="none" stroke-opacity="1"></path><path d="m32.78125 387.113281c2.351562 13.027344 13.660156 22.488281 26.902344 22.488281h123.289062c13.238282 0 24.550782-9.460937 26.898438-22.488281l31.144531-172.828125c4.429687-24.605468-2.222656-49.71875-18.257813-68.898437-13.589843-16.257813-32.585937-26.554688-53.277343-29.34375v-31.390625c0-7.828125-6.367188-14.199219-14.191407-14.199219h-14.371093v-29.492187h49.308593c2.832032 0 5.121094-2.292969 5.121094-5.121094v-30.71875c0-2.828125-2.289062-5.121094-5.121094-5.121094h-102.128906c-11.296875 0-20.480468 9.1875-20.480468 20.480469s9.183593 20.480469 20.480468 20.480469h13.644532v29.492187h-14.371094c-7.828125 0-14.199219 6.371094-14.199219 14.199219v31.390625c-20.6875 2.789062-39.6875 13.085937-53.273437 29.339843-16.035157 19.183594-22.6875 44.296876-18.257813 68.902344zm45.074219-366.632812c0-5.648438 4.597656-10.242188 10.242187-10.242188h97.007813v20.480469h-97.007813c-5.644531 0-10.242187-4.589844-10.242187-10.238281zm33.105469 20.480469h20.734374v29.492187h-20.734374zm-27.546876 43.691406c0-2.183594 1.773438-3.957032 3.957032-3.957032h67.917968c2.179688 0 3.953126 1.773438 3.953126 3.957032v30.605468c-.355469-.003906-.699219-.058593-1.054688-.058593h-73.714844c-.355468 0-.703125.054687-1.058594.058593zm-55.65625 67.296875c14.085938-16.847657 34.753907-26.507813 56.714844-26.507813h73.714844c21.960938 0 42.628906 9.660156 56.714844 26.511719 14.085937 16.847656 19.929687 38.90625 16.035156 60.515625l-31.144531 172.828125c-1.464844 8.148437-8.539063 14.0625-16.820313 14.0625h-123.289062c-8.28125 0-15.355469-5.914063-16.820313-14.0625l-31.140625-172.828125c-3.894531-21.609375 1.949219-43.667969 16.035156-60.519531zm0 0" fill="#a2b190" fill-opacity="1" data-original-color="#000000ff" stroke="none" stroke-opacity="1"></path><path d="m266.351562 105.933594c29.15625 0 52.875-23.71875 52.875-52.875 0-29.152344-23.71875-52.871094-52.875-52.871094s-52.871093 23.71875-52.871093 52.871094c0 29.15625 23.714843 52.875 52.871093 52.875zm0-95.507813c23.511719 0 42.636719 19.125 42.636719 42.632813 0 23.511718-19.125 42.636718-42.636719 42.636718-23.503906 0-42.628906-19.125-42.628906-42.636718 0-23.507813 19.125-42.632813 42.628906-42.632813zm0 0" fill="#a2b190" fill-opacity="1" data-original-color="#000000ff" stroke="none" stroke-opacity="1"></path><path d="m248.761719 58.179688c2.832031 0 5.121093-2.292969 5.121093-5.121094 0-6.875 5.59375-12.472656 12.46875-12.472656 2.832032 0 5.121094-2.289063 5.121094-5.117188s-2.289062-5.121094-5.121094-5.121094c-12.519531 0-22.710937 10.191406-22.710937 22.710938 0 2.828125 2.292969 5.121094 5.121094 5.121094zm0 0" fill="#a2b190" fill-opacity="1" data-original-color="#000000ff" stroke="none" stroke-opacity="1"></path><path d="m302.320312 235.066406c-29.152343 0-52.875 23.71875-52.875 52.875 0 29.152344 23.722657 52.875 52.875 52.875 29.15625 0 52.875-23.722656 52.875-52.875 0-29.15625-23.71875-52.875-52.875-52.875zm0 95.507813c-23.507812 0-42.632812-19.125-42.632812-42.632813 0-23.507812 19.125-42.632812 42.632812-42.632812 23.511719 0 42.636719 19.125 42.636719 42.632812 0 23.507813-19.125 42.632813-42.636719 42.632813zm0 0" fill="#a2b190" fill-opacity="1" data-original-color="#000000ff" stroke="none" stroke-opacity="1"></path><path d="m302.320312 265.226562c-12.519531 0-22.707031 10.191407-22.707031 22.714844 0 2.824219 2.289063 5.117188 5.117188 5.117188 2.832031 0 5.121093-2.292969 5.121093-5.117188 0-6.878906 5.59375-12.472656 12.46875-12.472656 2.832032 0 5.121094-2.292969 5.121094-5.121094s-2.289062-5.121094-5.121094-5.121094zm0 0" fill="#a2b190" fill-opacity="1" data-original-color="#000000ff" stroke="none" stroke-opacity="1"></path><path d="m280.542969 160.367188c0 35.660156 29.007812 64.671874 64.667969 64.671874 35.660156 0 64.675781-29.011718 64.675781-64.671874 0-35.660157-29.015625-64.671876-64.675781-64.671876-35.660157 0-64.667969 29.011719-64.667969 64.671876zm64.667969-54.433594c30.015624 0 54.4375 24.417968 54.4375 54.433594 0 30.015624-24.421876 54.433593-54.4375 54.433593-30.015626 0-54.429688-24.417969-54.429688-54.433593 0-30.015626 24.414062-54.433594 54.429688-54.433594zm0 0" fill="#a2b190" fill-opacity="1" data-original-color="#000000ff" stroke="none" stroke-opacity="1"></path><path d="m315.347656 164.664062c2.828125 0 5.121094-2.292968 5.121094-5.121093 0-14.726563 11.976562-26.707031 26.703125-26.707031 2.832031 0 5.121094-2.289063 5.121094-5.117188s-2.289063-5.121094-5.121094-5.121094c-20.371094 0-36.945313 16.574219-36.945313 36.945313 0 2.828125 2.289063 5.121093 5.121094 5.121093zm0 0" fill="#a2b190" fill-opacity="1" data-original-color="#000000ff" stroke="none" stroke-opacity="1"></path></g></svg>