<svg xmlns="http://www.w3.org/2000/svg" xmlns:xlink="http://www.w3.org/1999/xlink" xmlns:svgjs="http://svgjs.dev/svgjs" viewBox="0 0 32 32" width="300" height="300"><g width="100%" height="100%" transform="matrix(1,0,0,1,0,0)"><g id="running"><path d="m8.94 23a1 1 0 0 0 -1-1h-5a1 1 0 0 0 0 2h5a1 1 0 0 0 1-1z" fill="#a2b190" fill-opacity="1" data-original-color="#000000ff" stroke="none" stroke-opacity="1"></path><path d="m28.79 22.15a5.93 5.93 0 0 0 -3.52-2.15.58.58 0 0 1 -.47-.38l-2.62-7.17a1.94 1.94 0 0 0 -.78-.94l4.39-7a1 1 0 0 0 0-1 1 1 0 0 0 -.85-.51h-10a1 1 0 0 0 -.8.4l-2.81 3.72a2.33 2.33 0 0 0 -2.5.88l-4.4 5.91a2.47 2.47 0 0 0 .57 3.48l12.1 8.61h-11.16a1 1 0 1 0 0 2h19a1 1 0 0 0 .17 0l3.73.07a1 1 0 0 0 1-.74 6 6 0 0 0 -1.05-5.18zm-13.35-17.15h7.7l-4 6.47c0 .06 0 .12-.07.17a4 4 0 0 1 -1.92 0 4.37 4.37 0 0 1 -2.39-1.66 8 8 0 0 0 -1.76-1.8zm-5 4.2a.35.35 0 0 1 .48-.07l.88.65a6.07 6.07 0 0 1 1.32 1.35 6.22 6.22 0 0 0 7.25 2.22l.71 2-2.58.65a1 1 0 0 0 .28 2 .86.86 0 0 0 .28 0l2.7-.79.38 1-2.64.79a1 1 0 0 0 .3 2 1 1 0 0 0 .3 0l2.73-.87.09.25a2.59 2.59 0 0 0 1.95 1.62 4.14 4.14 0 0 1 2 1h-4.87a2.1 2.1 0 0 1 -1.23-.4l-13.19-9.41s-.07 0-.11 0zm17.56 16.8-7.6-.13-14.26-10.11a.46.46 0 0 1 -.2-.32.49.49 0 0 1 .06-.37l.28-.37a.57.57 0 0 0 .11.11l13.21 9.42a4.16 4.16 0 0 0 2.4.77h5.93a4.38 4.38 0 0 1 .07 1z" fill="#a2b190" fill-opacity="1" data-original-color="#000000ff" stroke="none" stroke-opacity="1"></path></g></g></svg>