<svg xmlns="http://www.w3.org/2000/svg" xmlns:xlink="http://www.w3.org/1999/xlink" xmlns:svgjs="http://svgjs.dev/svgjs" width="300" height="300" viewBox="0 0 128 128"><g width="100%" height="100%" transform="matrix(1,0,0,1,0,0)"><g><path d="M104.228,32.781a23.6,23.6,0,0,0-11.647,3.066A26.548,26.548,0,0,1,93.63,23.412l3.726-11.179a1.75,1.75,0,0,0-1.66-2.3H32.3a1.75,1.75,0,0,0-1.66,2.3L34.37,23.412a26.528,26.528,0,0,1,1.048,12.435A23.765,23.765,0,1,0,23.771,80.325c.254,0,.522-.009.792-.02.227.532.455,1.064.714,1.588l11.16,22.534-6.17,11.04a1.75,1.75,0,0,0,1.528,2.6h64.41a1.75,1.75,0,0,0,1.528-2.6l-6.17-11.04,11.16-22.534c.259-.524.487-1.056.714-1.588.27.011.538.02.791.02a23.772,23.772,0,1,0,0-47.544Zm1.606,35.771a29.983,29.983,0,0,0-7.2-19.506,26.827,26.827,0,0,1-1.677-2.184,12.114,12.114,0,1,1,8.876,21.69ZM34.732,13.43H93.268L90.31,22.305a29.91,29.91,0,0,0-1.345,6.088H39.035a29.91,29.91,0,0,0-1.345-6.088ZM22.166,68.559a12.118,12.118,0,1,1,8.876-21.7,26.827,26.827,0,0,1-1.677,2.184A29.978,29.978,0,0,0,22.166,68.559Zm1.166,8.261a20.272,20.272,0,1,1,11.274-37.4,26.556,26.556,0,0,1-1.764,4.41A15.626,15.626,0,1,0,22.381,72.117a29.856,29.856,0,0,0,.949,4.7Zm11.446,37.75,4.663-8.343H88.559l4.663,8.343ZM88.5,102.727h-49L28.414,80.34a27.23,27.23,0,0,1-2.693-10.1,26.481,26.481,0,0,1,6.3-18.923,29.878,29.878,0,0,0,7.2-19.428H88.77a29.878,29.878,0,0,0,7.2,19.428,26.486,26.486,0,0,1,6.3,18.923,27.23,27.23,0,0,1-2.693,10.1ZM104.668,76.82l0-.007a29.856,29.856,0,0,0,.949-4.7A15.625,15.625,0,1,0,95.158,43.829a26.47,26.47,0,0,1-1.764-4.41,20.272,20.272,0,1,1,11.274,37.4Z" fill="#a2b190" fill-opacity="1" data-original-color="#000000ff" stroke="none" stroke-opacity="1"></path><path d="M74.677,62.69A21.774,21.774,0,0,0,64.967,44.3a1.748,1.748,0,0,0-1.934,0,21.774,21.774,0,0,0-9.71,18.387,21.775,21.775,0,0,0-11.07,17.6,1.751,1.751,0,0,0,.967,1.675,21.633,21.633,0,0,0,9.66,2.275A21.939,21.939,0,0,0,64,81.2a21.939,21.939,0,0,0,11.12,3.044,21.633,21.633,0,0,0,9.66-2.275,1.751,1.751,0,0,0,.967-1.675A21.775,21.775,0,0,0,74.677,62.69ZM64,47.907a18.264,18.264,0,0,1,7.129,13.157,21.841,21.841,0,0,0-14.258,0A18.26,18.26,0,0,1,64,47.907ZM45.857,79.33a18.27,18.27,0,0,1,7.831-12.754,21.889,21.889,0,0,0,7.13,12.349A18.269,18.269,0,0,1,45.857,79.33ZM64,76.984a18.16,18.16,0,0,1-7.04-12.193,18.155,18.155,0,0,1,14.08,0,10.764,10.764,0,0,1-.174,1.086A18.116,18.116,0,0,1,64,76.984Zm3.182,1.941a21.9,21.9,0,0,0,7.13-12.349A18.27,18.27,0,0,1,82.143,79.33,18.265,18.265,0,0,1,67.182,78.925Z" fill="#a2b190" fill-opacity="1" data-original-color="#000000ff" stroke="none" stroke-opacity="1"></path></g></g></svg>