<svg xmlns="http://www.w3.org/2000/svg" xmlns:svg="http://www.w3.org/2000/svg" xmlns:xlink="http://www.w3.org/1999/xlink" xmlns:svgjs="http://svgjs.dev/svgjs" id="svg1707" xml:space="preserve" width="300" height="300" viewBox="0 0 682.66669 682.66669"><g width="100%" height="100%" transform="matrix(1,0,0,1,0,0)"><defs id="defs1711"><clipPath clipPathUnits="userSpaceOnUse" id="clipPath1721"><path d="M 0,512 H 512 V 0 H 0 Z" id="path1719" fill="#a2b190" fill-opacity="1" data-original-color="#000000ff" stroke="none" stroke-opacity="1"></path></clipPath></defs><g id="g1713" transform="matrix(1.3333333,0,0,-1.3333333,0,682.66667)"><g id="g1715"><g id="g1717" clip-path="url(#clipPath1721)"><g id="g1723" transform="translate(369.8096,188.6138)"><path d="m 0,0 c 0,-100.026 -81.088,-181.114 -181.114,-181.114 -100.026,0 -181.114,81.088 -181.114,181.114 0,100.026 81.088,181.113 181.114,181.113 C -81.088,181.113 0,100.026 0,0 Z" style="stroke-linecap: round; stroke-linejoin: round; stroke-miterlimit: 10; stroke-dasharray: none;" id="path1725" fill="none" fill-opacity="1" stroke="#a2b190" stroke-opacity="1" data-original-stroke-color="#000000ff" stroke-width="15" data-original-stroke-width="15"></path></g><g id="g1727" transform="translate(368.7637,168.9888)"><path d="M 0,0 -277.855,172.103" style="stroke-linecap: round; stroke-linejoin: round; stroke-miterlimit: 10; stroke-dasharray: 560, 30; stroke-dashoffset: 0;" id="path1729" fill="none" fill-opacity="1" stroke="#a2b190" stroke-opacity="1" data-original-stroke-color="#000000ff" stroke-width="15" data-original-stroke-width="15"></path></g><g id="g1731" transform="translate(356.4316,120.1494)"><path d="M 0,0 -303.7,188.13" style="stroke-linecap: round; stroke-linejoin: round; stroke-miterlimit: 10; stroke-dasharray: 250, 30; stroke-dashoffset: 0;" id="path1733" fill="none" fill-opacity="1" stroke="#a2b190" stroke-opacity="1" data-original-stroke-color="#000000ff" stroke-width="15" data-original-stroke-width="15"></path></g><g id="g1735" transform="translate(26.0205,268.3364)"><path d="M 0,0 306.484,-189.842" style="stroke-linecap: round; stroke-linejoin: round; stroke-miterlimit: 10; stroke-dasharray: 250, 30; stroke-dashoffset: 0;" id="path1737" fill="none" fill-opacity="1" stroke="#a2b190" stroke-opacity="1" data-original-stroke-color="#000000ff" stroke-width="15" data-original-stroke-width="15"></path></g><g id="g1739" transform="translate(297.4385,43.7534)"><path d="M 0,0 -286.892,177.694" style="stroke-linecap: round; stroke-linejoin: round; stroke-miterlimit: 10; stroke-dasharray: 560, 30; stroke-dashoffset: 0;" id="path1741" fill="none" fill-opacity="1" stroke="#a2b190" stroke-opacity="1" data-original-stroke-color="#000000ff" stroke-width="15" data-original-stroke-width="15"></path></g><g id="g1743" transform="translate(112.5488,153.7207)"><path d="M 0,0 -83.743,-50.259" style="stroke-linecap: round; stroke-linejoin: round; stroke-miterlimit: 10; stroke-dasharray: 560, 30; stroke-dashoffset: 0;" id="path1745" fill="none" fill-opacity="1" stroke="#a2b190" stroke-opacity="1" data-original-stroke-color="#000000ff" stroke-width="15" data-original-stroke-width="15"></path></g><g id="g1747" transform="translate(160.3047,125.8389)"><path d="M 0,0 -102.707,-62.201" style="stroke-linecap: round; stroke-linejoin: round; stroke-miterlimit: 10; stroke-dasharray: 560, 30; stroke-dashoffset: 0;" id="path1749" fill="none" fill-opacity="1" stroke="#a2b190" stroke-opacity="1" data-original-stroke-color="#000000ff" stroke-width="15" data-original-stroke-width="15"></path></g><g id="g1751" transform="translate(67.0361,182.2524)"><path d="M 0,0 -55.146,-33.094" style="stroke-linecap: round; stroke-linejoin: round; stroke-miterlimit: 10; stroke-dasharray: 560, 30; stroke-dashoffset: 0;" id="path1753" fill="none" fill-opacity="1" stroke="#a2b190" stroke-opacity="1" data-original-stroke-color="#000000ff" stroke-width="15" data-original-stroke-width="15"></path></g><g id="g1755" transform="translate(203.7041,96.5156)"><path d="M 0,0 -106.164,-64.444" style="stroke-linecap: round; stroke-linejoin: round; stroke-miterlimit: 10; stroke-dasharray: 560, 30; stroke-dashoffset: 0;" id="path1757" fill="none" fill-opacity="1" stroke="#a2b190" stroke-opacity="1" data-original-stroke-color="#000000ff" stroke-width="15" data-original-stroke-width="15"></path></g><g id="g1759" transform="translate(252.1753,70.0747)"><path d="M 0,0 -98.156,-59.264" style="stroke-linecap: round; stroke-linejoin: round; stroke-miterlimit: 10; stroke-dasharray: 560, 30; stroke-dashoffset: 0;" id="path1761" fill="none" fill-opacity="1" stroke="#a2b190" stroke-opacity="1" data-original-stroke-color="#000000ff" stroke-width="15" data-original-stroke-width="15"></path></g><g id="g1763" transform="translate(346.3428,277.8511)"><path d="M 0,0 -73.514,-44.104" style="stroke-linecap: round; stroke-linejoin: round; stroke-miterlimit: 10; stroke-dasharray: 560, 30; stroke-dashoffset: 0;" id="path1765" fill="none" fill-opacity="1" stroke="#a2b190" stroke-opacity="1" data-original-stroke-color="#000000ff" stroke-width="15" data-original-stroke-width="15"></path></g><g id="g1767" transform="translate(316.4775,316.981)"><path d="M 0,0 -91.404,-55.352" style="stroke-linecap: round; stroke-linejoin: round; stroke-miterlimit: 10; stroke-dasharray: 560, 30; stroke-dashoffset: 0;" id="path1769" fill="none" fill-opacity="1" stroke="#a2b190" stroke-opacity="1" data-original-stroke-color="#000000ff" stroke-width="15" data-original-stroke-width="15"></path></g><g id="g1771" transform="translate(364.375,232.8257)"><path d="M 0,0 -46.033,-27.622" style="stroke-linecap: round; stroke-linejoin: round; stroke-miterlimit: 10; stroke-dasharray: 560, 30; stroke-dashoffset: 0;" id="path1773" fill="none" fill-opacity="1" stroke="#a2b190" stroke-opacity="1" data-original-stroke-color="#000000ff" stroke-width="15" data-original-stroke-width="15"></path></g><g id="g1775" transform="translate(275.2344,347.7563)"><path d="M 0,0 -93.571,-56.804" style="stroke-linecap: round; stroke-linejoin: round; stroke-miterlimit: 10; stroke-dasharray: 560, 30; stroke-dashoffset: 0;" id="path1777" fill="none" fill-opacity="1" stroke="#a2b190" stroke-opacity="1" data-original-stroke-color="#000000ff" stroke-width="15" data-original-stroke-width="15"></path></g><g id="g1779" transform="translate(216.4043,367.6191)"><path d="M 0,0 -83.202,-50.237" style="stroke-linecap: round; stroke-linejoin: round; stroke-miterlimit: 10; stroke-dasharray: 560, 30; stroke-dashoffset: 0;" id="path1781" fill="none" fill-opacity="1" stroke="#a2b190" stroke-opacity="1" data-original-stroke-color="#000000ff" stroke-width="15" data-original-stroke-width="15"></path></g><g id="g1783" transform="translate(191.0312,7.5249)"><path d="m 0,0 h 254.725 c 32.398,0 58.662,26.264 58.662,58.662" style="stroke-linecap: round; stroke-linejoin: round; stroke-miterlimit: 10; stroke-dasharray: none;" id="path1785" fill="none" fill-opacity="1" stroke="#a2b190" stroke-opacity="1" data-original-stroke-color="#000000ff" stroke-width="15" data-original-stroke-width="15"></path></g><g id="g1787" transform="translate(248.438,364.0073)"><path d="M 0,0 68.375,77.898" style="stroke-linecap: round; stroke-linejoin: round; stroke-miterlimit: 10; stroke-dasharray: none;" id="path1789" fill="none" fill-opacity="1" stroke="#a2b190" stroke-opacity="1" data-original-stroke-color="#000000ff" stroke-width="15" data-original-stroke-width="15"></path></g><g id="g1791" transform="translate(370.0537,472.4834)"><path d="m 0,0 c 0,-17.682 -14.335,-32.017 -32.017,-32.017 -17.682,0 -32.016,14.335 -32.016,32.017 0,17.682 14.334,32.017 32.016,32.017 C -14.335,32.017 0,17.682 0,0 Z" style="stroke-linecap: round; stroke-linejoin: round; stroke-miterlimit: 10; stroke-dasharray: none;" id="path1793" fill="none" fill-opacity="1" stroke="#a2b190" stroke-opacity="1" data-original-stroke-color="#000000ff" stroke-width="15" data-original-stroke-width="15"></path></g><g id="g1795" transform="translate(346.3428,277.8511)"><path d="M 0,0 39.358,46.598" style="stroke-linecap: round; stroke-linejoin: round; stroke-miterlimit: 10; stroke-dasharray: none;" id="path1797" fill="none" fill-opacity="1" stroke="#a2b190" stroke-opacity="1" data-original-stroke-color="#000000ff" stroke-width="15" data-original-stroke-width="15"></path></g><g id="g1799" transform="translate(438.9424,355.0269)"><path d="m 0,0 c 0,-17.682 -14.335,-32.017 -32.017,-32.017 -17.682,0 -32.016,14.335 -32.016,32.017 0,17.683 14.334,32.017 32.016,32.017 C -14.335,32.017 0,17.683 0,0 Z" style="stroke-linecap: round; stroke-linejoin: round; stroke-miterlimit: 10; stroke-dasharray: none;" id="path1801" fill="none" fill-opacity="1" stroke="#a2b190" stroke-opacity="1" data-original-stroke-color="#000000ff" stroke-width="15" data-original-stroke-width="15"></path></g><g id="g1803" transform="translate(374.5332,206.7305)"><path d="M 0,0 60.601,-6.928" style="stroke-linecap: round; stroke-linejoin: round; stroke-miterlimit: 10; stroke-dasharray: none;" id="path1805" fill="none" fill-opacity="1" stroke="#a2b190" stroke-opacity="1" data-original-stroke-color="#000000ff" stroke-width="15" data-original-stroke-width="15"></path></g><g id="g1807" transform="translate(490.0957,172.4385)"><path d="m 0,0 c -14.717,-9.802 -34.593,-5.816 -44.395,8.901 -9.801,14.717 -5.816,34.593 8.901,44.394 14.718,9.802 34.594,5.817 44.395,-8.9 C 18.702,29.677 14.718,9.801 0,0 Z" style="stroke-linecap: round; stroke-linejoin: round; stroke-miterlimit: 10; stroke-dasharray: none;" id="path1809" fill="none" fill-opacity="1" stroke="#a2b190" stroke-opacity="1" data-original-stroke-color="#000000ff" stroke-width="15" data-original-stroke-width="15"></path></g><g id="g1811" transform="translate(208.6914,370.5068)"><path d="M 0,0 0.796,37.568" style="stroke-linecap: round; stroke-linejoin: round; stroke-miterlimit: 10; stroke-dasharray: none;" id="path1813" fill="none" fill-opacity="1" stroke="#a2b190" stroke-opacity="1" data-original-stroke-color="#000000ff" stroke-width="15" data-original-stroke-width="15"></path></g><g id="g1815" transform="translate(241.1055,460.7051)"><path d="m 0,0 c 8.608,-15.445 3.067,-34.945 -12.378,-43.554 -15.445,-8.609 -34.945,-3.067 -43.554,12.379 -8.609,15.445 -3.067,34.944 12.378,43.553 C -28.109,20.987 -8.609,15.445 0,0 Z" style="stroke-linecap: round; stroke-linejoin: round; stroke-miterlimit: 10; stroke-dasharray: none;" id="path1817" fill="none" fill-opacity="1" stroke="#a2b190" stroke-opacity="1" data-original-stroke-color="#000000ff" stroke-width="15" data-original-stroke-width="15"></path></g><g id="g1819" transform="translate(160.8198,369.0068)"><path d="M 0,0 -37.539,73.661" style="stroke-linecap: round; stroke-linejoin: round; stroke-miterlimit: 10; stroke-dasharray: none;" id="path1821" fill="none" fill-opacity="1" stroke="#a2b190" stroke-opacity="1" data-original-stroke-color="#000000ff" stroke-width="15" data-original-stroke-width="15"></path></g><g id="g1823" transform="translate(115.7251,503.3027)"><path d="m 0,0 c 17.1,-4.502 27.312,-22.013 22.81,-39.113 -4.502,-17.099 -22.014,-27.312 -39.113,-22.81 -17.1,4.502 -27.312,22.013 -22.81,39.113 C -34.611,-5.71 -17.1,4.502 0,0 Z" style="stroke-linecap: round; stroke-linejoin: round; stroke-miterlimit: 10; stroke-dasharray: none;" id="path1825" fill="none" fill-opacity="1" stroke="#a2b190" stroke-opacity="1" data-original-stroke-color="#000000ff" stroke-width="15" data-original-stroke-width="15"></path></g></g></g></g></g></svg>