<svg xmlns="http://www.w3.org/2000/svg" id="Capa_2" data-name="Capa 2" viewBox="0 0 112.92 101.59"><defs><style>      .cls-1 {        fill: #a1b08f;        fill-rule: evenodd;        stroke-width: 0px;      }      .cls-2 {        fill: none;        stroke: #fff;        stroke-miterlimit: 22.93;        stroke-width: 2.13px;      }    </style></defs><g id="Capa_1-2" data-name="Capa 1"><g><path class="cls-1" d="M21.77,3.2v8.8c-6.45,0-13.09-.82-17.02,3.17-1.26,1.28-1.97,1.91-2.73,3.74-.62,1.47-.95,3.77-.95,5.78v63.42c0,3.75.9,6.38,2.66,8.47.84,1,1.76,1.83,2.95,2.49,1,.55,2.85,1.47,4.23,1.47h91.12c2.49,0,5.58-2.06,7.18-3.96,1.76-2.09,2.66-4.72,2.66-8.47V24.69c0-8.34-4.87-12.68-13.72-12.68h-6.99V3.2c0-3.04-4.4-2.32-4.4-.52v9.32h-8.28V3.2c0-2.5-4.66-3.63-4.66,1.29v7.51h-34.69c0-2.95.8-10.87-1.81-10.87-3.89,0-2.85,2.1-2.85,10.87h-8.28V2.68c0-1.8-4.4-2.53-4.4.52ZM5.72,23.39c0-3.81,2.92-6.73,6.73-6.73h9.32c0,2.52-.47,4.66,2.33,4.66,2.55,0,2.07-2.67,2.07-4.66h8.28c0,2.04-.53,4.66,2.33,4.66,2.53,0,2.33-2.99,2.33-4.66h34.69c0,2.35-.19,4.66,2.59,4.66.67,0,.95-.13,1.34-.47,1.03-.92.73-2.47.73-4.19h8.28c0,2.52-.47,4.66,2.33,4.66,2.55,0,2.07-2.67,2.07-4.66h9.32c3.74,0,6.73,2.99,6.73,6.73v8.02H5.72v-8.02ZM5.72,89.4v-53.32h101.47v53.32c0,4.09-3.09,6.73-7.25,6.73H12.97c-4.16,0-7.25-2.64-7.25-6.73Z"></path><path class="cls-2" d="M21.77,3.2v8.8c-6.45,0-13.09-.82-17.02,3.17-1.26,1.28-1.97,1.91-2.73,3.74-.62,1.47-.95,3.77-.95,5.78v63.42c0,3.75.9,6.38,2.66,8.47.84,1,1.76,1.83,2.95,2.49,1,.55,2.85,1.47,4.23,1.47h91.12c2.49,0,5.58-2.06,7.18-3.96,1.76-2.09,2.66-4.72,2.66-8.47V24.69c0-8.34-4.87-12.68-13.72-12.68h-6.99V3.2c0-3.04-4.4-2.32-4.4-.52v9.32h-8.28V3.2c0-2.5-4.66-3.63-4.66,1.29v7.51h-34.69c0-2.95.8-10.87-1.81-10.87-3.89,0-2.85,2.1-2.85,10.87h-8.28V2.68c0-1.8-4.4-2.53-4.4.52ZM5.72,23.39c0-3.81,2.92-6.73,6.73-6.73h9.32c0,2.52-.47,4.66,2.33,4.66,2.55,0,2.07-2.67,2.07-4.66h8.28c0,2.04-.53,4.66,2.33,4.66,2.53,0,2.33-2.99,2.33-4.66h34.69c0,2.35-.19,4.66,2.59,4.66.67,0,.95-.13,1.34-.47,1.03-.92.73-2.47.73-4.19h8.28c0,2.52-.47,4.66,2.33,4.66,2.55,0,2.07-2.67,2.07-4.66h9.32c3.74,0,6.73,2.99,6.73,6.73v8.02H5.72v-8.02ZM5.72,89.4v-53.32h101.47v53.32c0,4.09-3.09,6.73-7.25,6.73H12.97c-4.16,0-7.25-2.64-7.25-6.73Z"></path><path class="cls-1" d="M71.47,74.65c0,1.12,3.49,4.14,4.35,4.97,1.25,1.21.79,1.53.46,3.46-.29,1.7-1.91,6.32,1.66,6.32,1.09,0,2.52-1.12,3.36-1.56.65-.34,2.69-1.51,3.33-1.47,1.29.08,5.07,3.03,6.77,3.03.82,0,2.07-1.21,2.07-1.81,0-2.4-.85-4.75-1.04-6.99.75-1.11,1.8-1.93,2.78-2.91,1.73-1.73,5.04-4.91-.89-5.71l-4.49-.68c-.87-.37-1.6-2.46-2.4-4.07-1.94-3.93-4.04-3.81-5.78,0-.44.95-1.31,3.48-2.03,3.92-2.02,1.25-8.15-.38-8.15,3.5ZM88.04,82.67c-3.92-.91-1.41-2.69-6.99.26,0-1.67.72-3.1.14-4.26-.47-.96-1.83-1.78-2.47-2.73,1.29,0,3.32-.26,4.04-.88.53-.45,1.48-2.51,1.66-3.26l.86,1.47c1.01,2.09,1.85,2.67,5.09,2.67-.62.93-1.7,1.56-2.24,2.42-.81,1.3-.09,2.85-.09,4.31Z"></path><path class="cls-2" d="M71.47,74.65c0,1.12,3.49,4.14,4.35,4.97,1.25,1.21.79,1.53.46,3.46-.29,1.7-1.91,6.32,1.66,6.32,1.09,0,2.52-1.12,3.36-1.56.65-.34,2.69-1.51,3.33-1.47,1.29.08,5.07,3.03,6.77,3.03.82,0,2.07-1.21,2.07-1.81,0-2.4-.85-4.75-1.04-6.99.75-1.11,1.8-1.93,2.78-2.91,1.73-1.73,5.04-4.91-.89-5.71l-4.49-.68c-.87-.37-1.6-2.46-2.4-4.07-1.94-3.93-4.04-3.81-5.78,0-.44.95-1.31,3.48-2.03,3.92-2.02,1.25-8.15-.38-8.15,3.5ZM88.04,82.67c-3.92-.91-1.41-2.69-6.99.26,0-1.67.72-3.1.14-4.26-.47-.96-1.83-1.78-2.47-2.73,1.29,0,3.32-.26,4.04-.88.53-.45,1.48-2.51,1.66-3.26l.86,1.47c1.01,2.09,1.85,2.67,5.09,2.67-.62.93-1.7,1.56-2.24,2.42-.81,1.3-.09,2.85-.09,4.31Z"></path><path class="cls-1" d="M14.78,73.87v13.2c0,1.28,1.05,2.33,2.33,2.33h13.2c1.4,0,2.33-1.28,2.33-2.59v-12.68c0-1.57-1.04-2.59-2.85-2.59h-12.68c-1.28,0-2.33,1.05-2.33,2.33ZM19.44,76.2h8.54v8.54h-8.54v-8.54Z"></path><path class="cls-2" d="M14.78,73.87v13.2c0,1.28,1.05,2.33,2.33,2.33h13.2c1.4,0,2.33-1.28,2.33-2.59v-12.68c0-1.57-1.04-2.59-2.85-2.59h-12.68c-1.28,0-2.33,1.05-2.33,2.33ZM19.44,76.2h8.54v8.54h-8.54v-8.54Z"></path><path class="cls-1" d="M79.76,45.14v12.94c0,1.92,1.66,2.59,3.62,2.59h10.61c1.87,0,3.62-.46,3.62-2.33v-13.72c0-.42-.59-1.81-2.07-1.81h-13.98c-.82,0-1.81,1.32-1.81,2.33ZM84.41,47.21h8.54v8.8h-8.54v-8.8Z"></path><path class="cls-2" d="M79.76,45.14v12.94c0,1.92,1.66,2.59,3.62,2.59h10.61c1.87,0,3.62-.46,3.62-2.33v-13.72c0-.42-.59-1.81-2.07-1.81h-13.98c-.82,0-1.81,1.32-1.81,2.33ZM84.41,47.21h8.54v8.8h-8.54v-8.8Z"></path><path class="cls-1" d="M14.78,44.88v13.46c0,1.87,1.76,2.33,3.62,2.33h10.61c2.31,0,3.62-.79,3.62-3.11v-11.91c0-1.25-.71-2.85-1.81-2.85h-13.98c-1.25,0-2.07.82-2.07,2.07ZM19.44,47.21h8.54v8.8h-8.54v-8.8Z"></path><path class="cls-2" d="M14.78,44.88v13.46c0,1.87,1.76,2.33,3.62,2.33h10.61c2.31,0,3.62-.79,3.62-3.11v-11.91c0-1.25-.71-2.85-1.81-2.85h-13.98c-1.25,0-2.07.82-2.07,2.07ZM19.44,47.21h8.54v8.8h-8.54v-8.8Z"></path><path class="cls-1" d="M47.4,73.61v13.72c0,1.34,1.08,2.07,2.33,2.07h12.94c1.25,0,2.33-.74,2.33-2.07v-13.98c0-.82-1.32-1.81-2.33-1.81h-12.94c-1.25,0-2.33.74-2.33,2.07ZM51.8,76.2h8.8v8.54h-8.8v-8.54Z"></path><path class="cls-2" d="M47.4,73.61v13.72c0,1.34,1.08,2.07,2.33,2.07h12.94c1.25,0,2.33-.74,2.33-2.07v-13.98c0-.82-1.32-1.81-2.33-1.81h-12.94c-1.25,0-2.33.74-2.33,2.07ZM51.8,76.2h8.8v8.54h-8.8v-8.54Z"></path><path class="cls-1" d="M47.4,44.88v13.98c0,1.49,2.27,1.81,3.88,1.81h10.1c1.87,0,3.62-.46,3.62-2.33v-13.46c0-1.25-.82-2.07-2.07-2.07h-13.46c-1.25,0-2.07.82-2.07,2.07ZM51.8,47.21h8.8v8.8h-8.8v-8.8Z"></path><path class="cls-2" d="M47.4,44.88v13.98c0,1.49,2.27,1.81,3.88,1.81h10.1c1.87,0,3.62-.46,3.62-2.33v-13.46c0-1.25-.82-2.07-2.07-2.07h-13.46c-1.25,0-2.07.82-2.07,2.07ZM51.8,47.21h8.8v8.8h-8.8v-8.8Z"></path></g></g></svg>