<svg xmlns="http://www.w3.org/2000/svg" xmlns:xlink="http://www.w3.org/1999/xlink" xmlns:svgjs="http://svgjs.dev/svgjs" viewBox="0 0 64 64" width="300" height="300"><g width="100%" height="100%" transform="matrix(1,0,0,1,0,0)"><g id="_04-Watering_can" data-name="04-Watering can"><path d="M57,50H31a1,1,0,0,1-1-1V45a1,1,0,0,1,1-1H57a1,1,0,0,1,1,1v4A1,1,0,0,1,57,50ZM32,48H56V46H32Z" fill="#a2b190" fill-opacity="1" data-original-color="#000000ff" stroke="none" stroke-opacity="1"></path><path d="M53,64H35a1,1,0,0,1-.99-.858l-2-14,1.98-.284L35.867,62H52.133L54.01,48.858l1.98.284-2,14A1,1,0,0,1,53,64Z" fill="#a2b190" fill-opacity="1" data-original-color="#000000ff" stroke="none" stroke-opacity="1"></path><path d="M50.053,42a4.158,4.158,0,0,1-2.947-1.106,4.311,4.311,0,0,1-1.076-3.506,5.3,5.3,0,0,1,2.417-3.907C50.732,32.017,54.827,32,55,32a1,1,0,0,1,1,1c0,.173-.017,4.268-1.481,6.554h0A5.306,5.306,0,0,1,50.053,42Zm3.9-7.954a10.832,10.832,0,0,0-4.428,1.119A3.3,3.3,0,0,0,48.019,37.6,1.941,1.941,0,0,0,50.4,39.981a3.3,3.3,0,0,0,2.437-1.506A10.816,10.816,0,0,0,53.953,34.046Z" fill="#a2b190" fill-opacity="1" data-original-color="#000000ff" stroke="none" stroke-opacity="1"></path><path d="M44.447,42.9l-.894-1.79,3.854-1.927,6.886-6.885,1.414,1.414-7,7a1.028,1.028,0,0,1-.26.188Z" fill="#a2b190" fill-opacity="1" data-original-color="#000000ff" stroke="none" stroke-opacity="1"></path><path d="M37.947,42a5.306,5.306,0,0,1-4.466-2.446h0C32.017,37.268,32,33.173,32,33a1,1,0,0,1,1-1c.173,0,4.268.017,6.553,1.481a5.3,5.3,0,0,1,2.417,3.907,4.311,4.311,0,0,1-1.076,3.506A4.158,4.158,0,0,1,37.947,42Zm-2.782-3.525A3.3,3.3,0,0,0,37.6,39.981,1.941,1.941,0,0,0,39.981,37.6a3.3,3.3,0,0,0-1.506-2.438,10.794,10.794,0,0,0-4.429-1.12,10.805,10.805,0,0,0,1.119,4.43Z" fill="#a2b190" fill-opacity="1" data-original-color="#000000ff" stroke="none" stroke-opacity="1"></path><path d="M45,45H43V42.618L39.553,40.9a1.028,1.028,0,0,1-.26-.188l-7-7,1.414-1.414,6.886,6.885,3.854,1.927A1,1,0,0,1,45,42Z" fill="#a2b190" fill-opacity="1" data-original-color="#000000ff" stroke="none" stroke-opacity="1"></path><rect x="37" y="58" width="2" height="2" fill="#a2b190" fill-opacity="1" data-original-color="#000000ff" stroke="none" stroke-opacity="1"></rect><rect x="41" y="58" width="10" height="2" fill="#a2b190" fill-opacity="1" data-original-color="#000000ff" stroke="none" stroke-opacity="1"></rect><path d="M27,50H1a1,1,0,0,1-1-1V45a1,1,0,0,1,1-1H27a1,1,0,0,1,1,1v4A1,1,0,0,1,27,50ZM2,48H26V46H2Z" fill="#a2b190" fill-opacity="1" data-original-color="#000000ff" stroke="none" stroke-opacity="1"></path><path d="M23,64H5a1,1,0,0,1-.99-.858l-2-14,1.98-.284L5.867,62H22.133L24.01,48.858l1.98.284-2,14A1,1,0,0,1,23,64Z" fill="#a2b190" fill-opacity="1" data-original-color="#000000ff" stroke="none" stroke-opacity="1"></path><path d="M20.053,36a4.158,4.158,0,0,1-2.947-1.106,4.311,4.311,0,0,1-1.076-3.506,5.3,5.3,0,0,1,2.417-3.907C20.732,26.017,24.827,26,25,26a1,1,0,0,1,1,1c0,.173-.017,4.268-1.481,6.554h0A5.306,5.306,0,0,1,20.053,36Zm3.9-7.954a10.832,10.832,0,0,0-4.428,1.119A3.3,3.3,0,0,0,18.019,31.6a2.351,2.351,0,0,0,.5,1.876,2.352,2.352,0,0,0,1.877.5,3.3,3.3,0,0,0,2.437-1.506A10.816,10.816,0,0,0,23.953,28.046Z" fill="#a2b190" fill-opacity="1" data-original-color="#000000ff" stroke="none" stroke-opacity="1"></path><path d="M14.447,36.9l-.894-1.79,3.854-1.927,6.886-6.885,1.414,1.414-7,7a1.028,1.028,0,0,1-.26.188Z" fill="#a2b190" fill-opacity="1" data-original-color="#000000ff" stroke="none" stroke-opacity="1"></path><path d="M7.947,36a5.306,5.306,0,0,1-4.466-2.446h0C2.017,31.268,2,27.173,2,27a1,1,0,0,1,1-1c.173,0,4.268.017,6.553,1.481a5.3,5.3,0,0,1,2.417,3.907,4.311,4.311,0,0,1-1.076,3.506A4.158,4.158,0,0,1,7.947,36ZM5.165,32.475A3.3,3.3,0,0,0,7.6,33.981a2.347,2.347,0,0,0,1.877-.5,2.351,2.351,0,0,0,.5-1.876,3.3,3.3,0,0,0-1.506-2.438,10.794,10.794,0,0,0-4.429-1.12,10.805,10.805,0,0,0,1.119,4.43Z" fill="#a2b190" fill-opacity="1" data-original-color="#000000ff" stroke="none" stroke-opacity="1"></path><path d="M15,45H13V36.618L9.553,34.9a1.028,1.028,0,0,1-.26-.188l-7-7,1.414-1.414,6.886,6.885L14.447,35.1A1,1,0,0,1,15,36Z" fill="#a2b190" fill-opacity="1" data-original-color="#000000ff" stroke="none" stroke-opacity="1"></path><rect x="7" y="58" width="2" height="2" fill="#a2b190" fill-opacity="1" data-original-color="#000000ff" stroke="none" stroke-opacity="1"></rect><rect x="11" y="58" width="10" height="2" fill="#a2b190" fill-opacity="1" data-original-color="#000000ff" stroke="none" stroke-opacity="1"></rect><path d="M39.439,26a1,1,0,0,1-.968-.75L33.757,6.979a1,1,0,0,1,.645-1.2L50.949.124a1,1,0,0,1,1.22.5l8.392,17.014a1,1,0,0,1-.574,1.388L39.763,25.946A1,1,0,0,1,39.439,26ZM35.925,7.375,40.138,23.7l18.126-6.2-7.5-15.2Z" fill="#a2b190" fill-opacity="1" data-original-color="#000000ff" stroke="none" stroke-opacity="1"></path><path d="M33.788,7.077a4.013,4.013,0,0,1,.262-2.994C34.86,2.375,36.7,1.02,39.527.054a1,1,0,0,1,1.261.6L42.1,4.18l-1.875.7-.961-2.587C34.975,4.059,35.638,6.3,35.67,6.4Z" fill="#a2b190" fill-opacity="1" data-original-color="#000000ff" stroke="none" stroke-opacity="1"></path><path d="M57.43,14.934l-.647-1.892,4.6-1.572A.921.921,0,0,0,61.921,11a.8.8,0,0,0,.027-.627l-2.62-7.058A.97.97,0,0,0,58.1,2.777L52.579,4.663l-.646-1.892L57.448.884A2.985,2.985,0,0,1,61.2,2.617l2.62,7.058a2.785,2.785,0,0,1-.094,2.18,2.9,2.9,0,0,1-1.7,1.507Z" fill="#a2b190" fill-opacity="1" data-original-color="#000000ff" stroke="none" stroke-opacity="1"></path><path d="M56.447,12.288,55.8,10.4l2.7-.925-1.27-3.417L53.562,7.31l-.647-1.893,4.6-1.572a1,1,0,0,1,1.26.6l1.966,5.293a1,1,0,0,1-.614,1.294Z" fill="#a2b190" fill-opacity="1" data-original-color="#000000ff" stroke="none" stroke-opacity="1"></path><path d="M37.948,21.755l-10.536-4.8A1,1,0,0,1,26.93,15.6l1.183-2.393a1.006,1.006,0,0,1,.574-.5l7.354-2.515.646,1.893-6.963,2.382-.543,1.1,9.6,4.37Z" fill="#a2b190" fill-opacity="1" data-original-color="#000000ff" stroke="none" stroke-opacity="1"></path><path d="M27.412,16.958l-2.494-1.136a1,1,0,0,1-.482-1.353l1.183-2.393a1,1,0,0,1,1.311-.467l2.494,1.136-.828,1.82-1.614-.734-.295.6,1.553.707Z" fill="#a2b190" fill-opacity="1" data-original-color="#000000ff" stroke="none" stroke-opacity="1"></path><path d="M24.739,17.108a1,1,0,0,1-.413-.089l-3.74-1.7a1,1,0,0,1-.482-1.353L22.47,9.176a1,1,0,0,1,1.31-.467l3.741,1.7A1,1,0,0,1,28,11.766l-.592,1.2-1.793-.886.134-.271-1.92-.874-1.479,2.992,1.919.874.163-.328,1.793.886-.592,1.2A1,1,0,0,1,24.739,17.108Z" fill="#a2b190" fill-opacity="1" data-original-color="#000000ff" stroke="none" stroke-opacity="1"></path><path d="M14,26a3,3,0,0,1-3-3c0-1.278,1.522-3.621,2.177-4.568a1.038,1.038,0,0,1,1.646,0C15.478,19.379,17,21.722,17,23A3,3,0,0,1,14,26Zm0-5.146A7.457,7.457,0,0,0,13,23a1,1,0,0,0,2,0A7.515,7.515,0,0,0,14,20.854Z" fill="#a2b190" fill-opacity="1" data-original-color="#000000ff" stroke="none" stroke-opacity="1"></path><path d="M3,43a3,3,0,0,1-3-3c0-1.278,1.522-3.621,2.177-4.568a1.038,1.038,0,0,1,1.646,0C4.478,36.379,6,38.722,6,40A3,3,0,0,1,3,43Zm0-5.146A7.457,7.457,0,0,0,2,40a1,1,0,0,0,2,0A7.515,7.515,0,0,0,3,37.854Z" fill="#a2b190" fill-opacity="1" data-original-color="#000000ff" stroke="none" stroke-opacity="1"></path><path d="M6.657,19a2.657,2.657,0,0,1-1.879-4.536c.784-.783,3.088-1.273,4.042-1.448A1,1,0,0,1,9.983,14.18c-.173.954-.665,3.259-1.448,4.042A2.635,2.635,0,0,1,6.657,19Zm-.47-3.117a.658.658,0,0,0,0,.924.671.671,0,0,0,.929,0,5.389,5.389,0,0,0,.553-1.481A5.468,5.468,0,0,0,6.187,15.883Z" fill="#a2b190" fill-opacity="1" data-original-color="#000000ff" stroke="none" stroke-opacity="1"></path><path d="M14,12a3,3,0,0,1,0-6c1.278,0,3.62,1.522,4.568,2.177a1,1,0,0,1,0,1.646C17.62,10.478,15.278,12,14,12Zm0-4a1,1,0,0,0,0,2,7.467,7.467,0,0,0,2.146-1A7.445,7.445,0,0,0,14,8Z" fill="#a2b190" fill-opacity="1" data-original-color="#000000ff" stroke="none" stroke-opacity="1"></path><path d="M32,29a3,3,0,0,1-3-3c0-1.278,1.522-3.621,2.177-4.568a1.038,1.038,0,0,1,1.646,0C33.478,22.379,35,24.722,35,26A3,3,0,0,1,32,29Zm0-5.146A7.457,7.457,0,0,0,31,26a1,1,0,0,0,2,0A7.515,7.515,0,0,0,32,23.854Z" fill="#a2b190" fill-opacity="1" data-original-color="#000000ff" stroke="none" stroke-opacity="1"></path><path d="M27,43a3,3,0,0,1-3-3c0-1.278,1.522-3.621,2.177-4.568a1.038,1.038,0,0,1,1.646,0C28.478,36.379,30,38.722,30,40A3,3,0,0,1,27,43Zm0-5.146A7.457,7.457,0,0,0,26,40a1,1,0,0,0,2,0A7.515,7.515,0,0,0,27,37.854Z" fill="#a2b190" fill-opacity="1" data-original-color="#000000ff" stroke="none" stroke-opacity="1"></path></g></g></svg>