<svg xmlns="http://www.w3.org/2000/svg" xmlns:xlink="http://www.w3.org/1999/xlink" xmlns:svgjs="http://svgjs.dev/svgjs" id="Layer_1" viewBox="0 0 512 512" width="300" height="300"><g width="100%" height="100%" transform="matrix(1,0,0,1,0,0)"><path d="m162.91 195.98c-4.42 0-8.02-3.6-8.02-8.02s3.6-7.99 8.02-7.99h11.31c4.42 0 8.02 3.57 8.02 7.99s-3.6 8.02-8.02 8.02zm43.4 84.56c-4.42 0-7.99-3.6-7.99-8.02 0-4.39 3.57-7.99 7.99-7.99h17.38c4.42 0 8.02 3.6 8.02 7.99 0 4.42-3.6 8.02-8.02 8.02zm51.73 0c-4.42 0-7.99-3.6-7.99-8.02 0-4.39 3.57-7.99 7.99-7.99h114.63c4.42 0 7.99 3.6 7.99 7.99 0 4.42-3.57 8.02-7.99 8.02zm-27.41 43.37c-4.42 0-7.99-3.57-7.99-7.99s3.57-7.99 7.99-7.99h96.92c4.39 0 7.99 3.57 7.99 7.99s-3.6 7.99-7.99 7.99zm124.69 0c-4.42 0-7.99-3.57-7.99-7.99s3.57-7.99 7.99-7.99h17.35c4.42 0 7.99 3.57 7.99 7.99s-3.57 7.99-7.99 7.99zm-155.34-127.93c-4.42 0-7.99-3.6-7.99-8.02s3.57-7.99 7.99-7.99h48.84c4.42 0 8.02 3.57 8.02 7.99s-3.6 8.02-8.02 8.02zm-37.07 39.66c-4.42 0-8.02-3.6-8.02-8.02 0-4.39 3.6-7.99 8.02-7.99h69.79c4.42 0 7.99 3.6 7.99 7.99 0 4.42-3.57 8.02-7.99 8.02zm93.09 0c-4.42 0-7.99-3.6-7.99-8.02 0-4.39 3.57-7.99 7.99-7.99h22.22c4.42 0 7.99 3.6 7.99 7.99 0 4.42-3.57 8.02-7.99 8.02zm-90.06 182.8c2.21 0 4.08-1.87 4.08-4.08v-144.73c0-5.36-8.16-5.36-8.16 0v144.74c0 2.2 1.84 4.07 4.08 4.07zm14.17 10.1c-7.85 7.85-20.52 7.85-28.37 0-1.9-1.9-3.43-4.17-4.45-6.69l-52.47-32.66h-5.92v48.87c0 4.39-3.57 7.99-7.99 7.99h-11.26c-10.86 0-19.25-9.55-19.25-20.44v-36.43h-2.38c-16.13 0-29.31-13.18-29.31-29.31v-32.4c0-16.16 13.18-29.31 29.31-29.31h39.8v-165.33c0-13.35 10.89-24.26 24.24-24.26h157.1c12.41-47.57 55.61-81.79 106.01-81.79 60.49 0 109.56 49.04 109.56 109.56 0 34.1-15.62 64.86-40.59 85.12v147.51c0 13.35-10.89 24.26-24.24 24.26h-109c2.3 6.52 5.27 12.67 8.79 18.31 4.68 7.43 10.35 13.92 16.84 19.16h9.24c7.2 0 13.07 5.9 13.07 13.07v28.83c0 7.2-5.87 13.07-13.07 13.07h-159.59c-7.2 0-13.07-5.87-13.07-13.07v-28.83c0-3.57 1.47-6.83 3.86-9.21l-.03-.03c2.38-2.35 5.64-3.83 9.24-3.83h9.21c6.52-5.24 12.19-11.74 16.84-19.16 3.54-5.64 6.49-11.79 8.82-18.31h-35.04v21.12c0 5.54-2.27 10.56-5.9 14.19zm-34.27-26.42v-116.9l-40.37 25.14v66.61zm.29-135.9c2.72-15.85 22.37-22.42 33.99-10.8 3.63 3.63 5.9 8.65 5.9 14.2v40.51c14.4 4.08 24.63 17.21 25.11 32.4h178.5c2.21 0 4.05-1.84 4.05-4.05v-94.14c-58.42 9.95-113.53-28.15-125.66-85.07h-125.72c-2.21 0-4.03 1.84-4.03 4.05v107.8zm39.88 61.15v32.6c12.16-7.26 12.19-25.29 0-32.6zm0 49.83v.03h233.89c4.51 0 8.25-3.71 8.25-8.25v-136.72c-5.87 3.23-12.02 5.95-18.45 8.08v98.14c0 11.05-9.01 20.04-20.07 20.04h-181.77c-4.25 9.04-12.16 15.93-21.85 18.68zm-113.1 11.99h-6.52v36.43c0 2.15 1.28 4.42 3.26 4.42h3.26zm16.55-75.03h-41.44c-7.31 0-13.29 6.01-13.29 13.32v32.4c0 7.29 5.98 13.29 13.29 13.29h41.44zm14.34-21.57 18.45-11.48v-117.78c0-11.06 9.01-20.04 20.04-20.04h123.51c-.37-6.26-.23-12.53.43-18.71h-154.18c-4.54 0-8.25 3.71-8.25 8.25zm316.63-238.14c3.06 4.45 5.78 9.18 8.16 14.14 2.04-1.42 4.05-2.95 5.98-4.54-4.38-3.59-9.12-6.82-14.14-9.6zm14.29 29.25c4.48 13.41 7.31 28.54 8.02 44.65h25.62c-1.7-20.21-9.84-38.58-22.34-53.06-3.56 3.02-7.36 5.86-11.3 8.41zm8.02 60.63c-.71 16.1-3.54 31.24-8.02 44.65 3.94 2.55 7.74 5.39 11.31 8.42 12.5-14.49 20.64-32.85 22.34-53.06h-25.63zm-14.14 59.76c-2.38 4.96-5.07 9.69-8.16 14.14 5.02-2.78 9.75-6.01 14.14-9.61-1.93-1.58-3.94-3.11-5.98-4.53zm-98.7 14.14c-3.09-4.45-5.78-9.18-8.19-14.14-2.04 1.42-4.03 2.95-5.95 4.54 4.38 3.59 9.12 6.83 14.14 9.6zm-14.29-29.25c-4.48-13.41-7.31-28.54-8.02-44.65h-25.65c1.73 20.21 9.84 38.58 22.34 53.06 3.59-3.02 7.36-5.86 11.33-8.41zm-8.02-60.63c.71-16.1 3.54-31.24 8.02-44.65-3.97-2.55-7.74-5.39-11.34-8.42-12.5 14.49-20.61 32.85-22.34 53.06h25.66zm14.11-59.76c2.41-4.96 5.1-9.69 8.19-14.14-5.02 2.78-9.75 6.01-14.14 9.61 1.93 1.58 3.91 3.11 5.95 4.53zm88.84-.03c-7.48-12.73-16.98-21.57-27.38-24.6v41.04c11.17-.94 21.8-3.83 31.61-8.42-1.34-2.8-2.73-5.49-4.23-8.02zm-43.37-24.6c-13.72 4-24.58 17.55-31.61 32.63 9.81 4.59 20.41 7.48 31.61 8.42zm-37.33 47.56c-3.43 11.11-5.61 23.56-6.26 36.82h43.6v-27.3c-13.13-.96-25.72-4.24-37.34-9.52zm-6.27 52.81c.65 13.27 2.83 25.71 6.26 36.82 11.62-5.27 24.21-8.56 37.33-9.52v-27.3zm12 51.76c7.03 15.05 17.89 28.63 31.61 32.63v-41.05c-11.21.94-21.81 3.83-31.61 8.42zm47.59 32.63c13.69-4 24.55-17.57 31.61-32.63-9.81-4.59-20.44-7.48-31.61-8.42zm37.3-47.56c3.43-11.11 5.64-23.56 6.26-36.82h-43.57v27.3c13.11.96 25.72 4.24 37.31 9.52zm6.27-52.81c-.62-13.27-2.83-25.71-6.26-36.82-11.59 5.27-24.21 8.56-37.3 9.52v27.3zm-208.72 302.37h95.9c-9.01-10.83-15.65-23.7-19.76-37.47h-56.35c-4.14 13.77-10.77 26.64-19.79 37.47zm124.81 15.99h-153.72v22.99h153.72z" fill="#a2b190" fill-opacity="1" data-original-color="#000000ff" stroke="none" stroke-opacity="1"></path></g></svg>