<svg xmlns="http://www.w3.org/2000/svg" xmlns:xlink="http://www.w3.org/1999/xlink" xmlns:svgjs="http://svgjs.dev/svgjs" id="Capa_1" x="0px" y="0px" viewBox="0 0 512 512" style="enable-background:new 0 0 512 512;" xml:space="preserve" width="300" height="300" class="__web-inspector-hide-shortcut__"><g width="100%" height="100%" transform="matrix(1,0,0,1,0,0)"><g>	<path style="stroke-linecap: round; stroke-linejoin: round; stroke-miterlimit: 10;" d="
		M475,336.961h23.712c3.197,0,5.788-2.592,5.788-5.788c0-21.098-17.104-38.202-38.202-38.202h-44.852
		c-1.949,8.484-4.908,16.583-8.737,24.167c7.974,4.281,14.244,11.312,17.558,19.823H440" fill="none" fill-opacity="1" stroke="#a2b190" stroke-opacity="1" data-original-stroke-color="#000000ff" stroke-width="15" data-original-stroke-width="15"></path>			<line style="stroke-linecap: round; stroke-linejoin: round; stroke-miterlimit: 10;" x1="282.518" y1="178.591" x2="248" y2="178.591" fill="none" fill-opacity="1" stroke="#a2b190" stroke-opacity="1" data-original-stroke-color="#000000ff" stroke-width="15" data-original-stroke-width="15"></line>	<path style="stroke-linecap: round; stroke-linejoin: round; stroke-miterlimit: 10;" d="
		M412.701,317.134c7.331-14.516,11.47-30.918,11.47-48.292v-65.164" fill="none" fill-opacity="1" stroke="#a2b190" stroke-opacity="1" data-original-stroke-color="#000000ff" stroke-width="15" data-original-stroke-width="15"></path>	<path style="stroke-linecap: round; stroke-linejoin: round; stroke-miterlimit: 10;" d="
		M213,178.591h-26.965c-44.496,0-82.666,27.081-98.929,65.66" fill="none" fill-opacity="1" stroke="#a2b190" stroke-opacity="1" data-original-stroke-color="#000000ff" stroke-width="15" data-original-stroke-width="15"></path>	<path style="stroke-linecap: round; stroke-linejoin: round; stroke-miterlimit: 10;" d="
		M394.666,312.612h-46.188c15.094,10.523,26.51,25.98,31.869,43.99h46.732c3.197,0,5.788-2.592,5.788-5.788l0,0
		C432.868,329.716,415.765,312.612,394.666,312.612z" fill="none" fill-opacity="1" stroke="#a2b190" stroke-opacity="1" data-original-stroke-color="#000000ff" stroke-width="15" data-original-stroke-width="15"></path>	<g>					<line style="stroke-linecap: round; stroke-linejoin: round; stroke-miterlimit: 10;" x1="82.01" y1="392.593" x2="82.01" y2="425.399" fill="none" fill-opacity="1" stroke="#a2b190" stroke-opacity="1" data-original-stroke-color="#000000ff" stroke-width="15" data-original-stroke-width="15"></line>		<path style="stroke-linecap: round; stroke-linejoin: round; stroke-miterlimit: 10;" d="
			M133,461.653h168.871c45.025,0,81.863-36.838,81.863-81.863v0c0-45.025-36.838-81.863-81.863-81.863H181.998" fill="none" fill-opacity="1" stroke="#a2b190" stroke-opacity="1" data-original-stroke-color="#000000ff" stroke-width="15" data-original-stroke-width="15"></path>		<path style="stroke-linecap: round; stroke-linejoin: round; stroke-miterlimit: 10;" d="
			M301.871,297.927h-70.565c-0.953,3.407-1.371,7.038-1.137,10.8c1.001,16.059,14.036,29.144,30.091,30.204
			c7.914,0.522,15.266-1.806,21.135-6.057c4.045-2.93,9.791-1.553,12.13,2.86c6.863,12.948,20.855,21.534,36.751,20.518
			c16.629-1.064,30.46-12.869,34.766-28.377C349.997,309.618,327.234,297.927,301.871,297.927z" fill="none" fill-opacity="1" stroke="#a2b190" stroke-opacity="1" data-original-stroke-color="#000000ff" stroke-width="15" data-original-stroke-width="15"></path>		<path style="stroke-linecap: round; stroke-linejoin: round; stroke-miterlimit: 10;" d="
			M354.497,379.79c0,29.018-23.608,52.626-52.626,52.626h-30.173c-11.109,0-20.114,9.005-20.114,20.114v9.123" fill="none" fill-opacity="1" stroke="#a2b190" stroke-opacity="1" data-original-stroke-color="#000000ff" stroke-width="15" data-original-stroke-width="15"></path>		<g>			<g>				<path style="stroke-linecap: round; stroke-linejoin: round; stroke-miterlimit: 10;" d="
					M44.214,270.799c7.317-15.182,22.161-25.188,38.794-26.417c-5.409-6.144-11.281-11.728-17.408-16.538
					c-12.423-9.616-25.904-15.982-34.394-10.719c-8.803,4.721-10.03,19.579-7.915,35.146c1.81,12.655,5.755,25.759,11.523,38.032
					L44.214,270.799z" fill="none" fill-opacity="1" stroke="#a2b190" stroke-opacity="1" data-original-stroke-color="#000000ff" stroke-width="15" data-original-stroke-width="15"></path>				<path style="stroke-linecap: round; stroke-linejoin: round; stroke-miterlimit: 10;" d="
					M181.932,217.125c-8.49-5.263-21.971,1.103-34.394,10.719c-6.127,4.81-11.999,10.395-17.408,16.538
					c16.633,1.23,31.478,11.236,38.794,26.417l9.4,19.503c5.768-12.273,9.713-25.377,11.523-38.032
					C191.962,236.704,190.735,221.846,181.932,217.125z" fill="none" fill-opacity="1" stroke="#a2b190" stroke-opacity="1" data-original-stroke-color="#000000ff" stroke-width="15" data-original-stroke-width="15"></path>			</g>			<path style="stroke-linecap: round; stroke-linejoin: round; stroke-miterlimit: 10;" d="
				M126.659,244.251H86.478c-18.017,0-34.442,10.317-42.264,26.547l-16.179,33.57c-7.446,15.449-5.869,33.729,4.112,47.675
				l15.081,21.072c8.809,12.309,23.016,19.612,38.152,19.612h42.377c15.136,0,29.343-7.303,38.152-19.612l15.081-21.072
				c9.981-13.946,11.558-32.226,4.112-47.675l-16.179-33.57C161.102,254.569,144.676,244.251,126.659,244.251z" fill="none" fill-opacity="1" stroke="#a2b190" stroke-opacity="1" data-original-stroke-color="#000000ff" stroke-width="15" data-original-stroke-width="15"></path>			<path style="stroke-linecap: round; stroke-linejoin: round; stroke-miterlimit: 10;" d="
				M106.569,330.319l9.93-10.551c1.321-1.404,0.326-3.707-1.602-3.707H98.241c-1.928,0-2.923,2.303-1.602,3.707L106.569,330.319z" fill="none" fill-opacity="1" stroke="#a2b190" stroke-opacity="1" data-original-stroke-color="#000000ff" stroke-width="15" data-original-stroke-width="15"></path>							<polyline style="stroke-linecap: round; stroke-linejoin: round; stroke-miterlimit: 10;" points="
				120.989,348.108 106.569,336.57 92.474,348.108 			" fill="none" fill-opacity="1" stroke="#a2b190" stroke-opacity="1" data-original-stroke-color="#000000ff" stroke-width="15" data-original-stroke-width="15"></polyline>							<line style="stroke-linecap: round; stroke-linejoin: round; stroke-miterlimit: 10;" x1="106.569" y1="330.572" x2="106.569" y2="336.57" fill="none" fill-opacity="1" stroke="#a2b190" stroke-opacity="1" data-original-stroke-color="#000000ff" stroke-width="15" data-original-stroke-width="15"></line>			<g>				<g>											<line style="stroke-linecap: round; stroke-linejoin: round; stroke-miterlimit: 10;" x1="174.648" y1="323.406" x2="205.202" y2="323.406" fill="none" fill-opacity="1" stroke="#a2b190" stroke-opacity="1" data-original-stroke-color="#000000ff" stroke-width="15" data-original-stroke-width="15"></line>											<line style="stroke-linecap: round; stroke-linejoin: round; stroke-miterlimit: 10;" x1="174.648" y1="349.918" x2="205.202" y2="349.918" fill="none" fill-opacity="1" stroke="#a2b190" stroke-opacity="1" data-original-stroke-color="#000000ff" stroke-width="15" data-original-stroke-width="15"></line>				</g>				<g>											<line style="stroke-linecap: round; stroke-linejoin: round; stroke-miterlimit: 10;" x1="7.5" y1="323.406" x2="38.316" y2="323.406" fill="none" fill-opacity="1" stroke="#a2b190" stroke-opacity="1" data-original-stroke-color="#000000ff" stroke-width="15" data-original-stroke-width="15"></line>											<line style="stroke-linecap: round; stroke-linejoin: round; stroke-miterlimit: 10;" x1="7.5" y1="349.918" x2="38.316" y2="349.918" fill="none" fill-opacity="1" stroke="#a2b190" stroke-opacity="1" data-original-stroke-color="#000000ff" stroke-width="15" data-original-stroke-width="15"></line>				</g>			</g>			<g>									<line style="stroke-linecap: round; stroke-linejoin: round; stroke-miterlimit: 10;" x1="70.151" y1="296.911" x2="70.151" y2="307.327" fill="none" fill-opacity="1" stroke="#a2b190" stroke-opacity="1" data-original-stroke-color="#000000ff" stroke-width="15" data-original-stroke-width="15"></line>									<line style="stroke-linecap: round; stroke-linejoin: round; stroke-miterlimit: 10;" x1="142.987" y1="296.911" x2="142.987" y2="307.327" fill="none" fill-opacity="1" stroke="#a2b190" stroke-opacity="1" data-original-stroke-color="#000000ff" stroke-width="15" data-original-stroke-width="15"></line>			</g>		</g>		<path style="stroke-linecap: round; stroke-linejoin: round; stroke-miterlimit: 10;" d="
			M166.212,425.399H51.511c-17.388,0-31.483,14.096-31.483,31.483l0,0c0,2.635,2.136,4.77,4.77,4.77H55" fill="none" fill-opacity="1" stroke="#a2b190" stroke-opacity="1" data-original-stroke-color="#000000ff" stroke-width="15" data-original-stroke-width="15"></path>					<line style="stroke-linecap: round; stroke-linejoin: round; stroke-miterlimit: 10;" x1="90" y1="461.653" x2="166.212" y2="461.653" fill="none" fill-opacity="1" stroke="#a2b190" stroke-opacity="1" data-original-stroke-color="#000000ff" stroke-width="15" data-original-stroke-width="15"></line>	</g>	<g>		<g>			<path style="stroke-linecap: round; stroke-linejoin: round; stroke-miterlimit: 10;" d="
				M454.062,67.87l-30.486-14.724c-10.767-5.2-23.645-3.02-32.099,5.435l0,0c-3.282,3.282-5.629,7.256-6.958,11.531
				c11.055,3.121,21.689,8.191,31.368,15.223l0,0c19.845,14.418,29.571,38.601,25.844,62.277l4.047,1.025
				c17.76,4.496,35.006-8.927,35.006-27.248v-10.937C480.783,92.307,470.401,75.761,454.062,67.87z" fill="none" fill-opacity="1" stroke="#a2b190" stroke-opacity="1" data-original-stroke-color="#000000ff" stroke-width="15" data-original-stroke-width="15"></path>			<path style="stroke-linecap: round; stroke-linejoin: round; stroke-miterlimit: 10;" d="
				M299.146,85.335L299.146,85.335c9.679-7.032,20.313-12.102,31.368-15.223c-1.329-4.276-3.676-8.249-6.958-11.531
				c-8.455-8.455-21.333-10.635-32.1-5.435L260.971,67.87c-16.339,7.892-26.722,24.437-26.722,42.583v10.937
				c0,18.32,17.245,31.744,35.006,27.248l4.047-1.025C269.575,123.936,279.301,99.753,299.146,85.335z" fill="none" fill-opacity="1" stroke="#a2b190" stroke-opacity="1" data-original-stroke-color="#000000ff" stroke-width="15" data-original-stroke-width="15"></path>		</g>		<path style="stroke-linecap: round; stroke-linejoin: round; stroke-miterlimit: 10;" d="
			M299.146,85.335L299.146,85.335c-22.639,16.448-32.112,45.603-23.464,72.216l13.884,42.729
			c5.016,15.437,19.401,25.889,35.633,25.889h64.636c16.232,0,30.617-10.452,35.633-25.889l13.884-42.729
			c8.647-26.613-0.826-55.768-23.464-72.216l0,0C381.081,60.048,333.951,60.048,299.146,85.335z" fill="none" fill-opacity="1" stroke="#a2b190" stroke-opacity="1" data-original-stroke-color="#000000ff" stroke-width="15" data-original-stroke-width="15"></path>		<path style="stroke-linecap: round; stroke-linejoin: round; stroke-miterlimit: 10;" d="
			M357.516,194.224l19.01-23.388c3.408-4.193,0.424-10.463-4.979-10.463h-28.062c-5.403,0-8.387,6.27-4.979,10.463L357.516,194.224z
			" fill="none" fill-opacity="1" stroke="#a2b190" stroke-opacity="1" data-original-stroke-color="#000000ff" stroke-width="15" data-original-stroke-width="15"></path>					<line style="stroke-linecap: round; stroke-linejoin: round; stroke-miterlimit: 10;" x1="357.516" y1="194.224" x2="357.516" y2="226.17" fill="none" fill-opacity="1" stroke="#a2b190" stroke-opacity="1" data-original-stroke-color="#000000ff" stroke-width="15" data-original-stroke-width="15"></line>		<g>							<line style="stroke-linecap: round; stroke-linejoin: round; stroke-miterlimit: 10;" x1="321.712" y1="128.754" x2="321.712" y2="138.995" fill="none" fill-opacity="1" stroke="#a2b190" stroke-opacity="1" data-original-stroke-color="#000000ff" stroke-width="15" data-original-stroke-width="15"></line>							<line style="stroke-linecap: round; stroke-linejoin: round; stroke-miterlimit: 10;" x1="393.32" y1="128.754" x2="393.32" y2="138.995" fill="none" fill-opacity="1" stroke="#a2b190" stroke-opacity="1" data-original-stroke-color="#000000ff" stroke-width="15" data-original-stroke-width="15"></line>		</g>	</g></g></g></svg>