<svg xmlns="http://www.w3.org/2000/svg" xmlns:xlink="http://www.w3.org/1999/xlink" xmlns:svgjs="http://svgjs.dev/svgjs" id="Layer_2" viewBox="0 0 64 64" data-name="Layer 2" width="300" height="300"><g width="100%" height="100%" transform="matrix(1,0,0,1,0,0)"><path d="m44.06 35c-.65-.36-1.42-.35-2 .01l-6.54 3.76h-8.12l-6.57-3.8c-.61-.37-1.37-.37-2.03 0-1.37.73-1.36 2.79-.01 3.5l7.14 4.14-2.04 9.24c-.08.34.2.7.56.69h2.23v8.46c.06 2.66 4 2.65 4.05-.01v-8.45h1.44v8.46c.06 2.65 4 2.65 4.06-.01v-8.45h2.22c.35.01.65-.35.56-.69l-2.04-9.23 7.12-4.12c1.33-.74 1.34-2.79-.03-3.52zm-24.71 2.49c-1.03-.6-.08-2.11.91-1.54l6.35 3.67-.41 1.84zm10.25 23.49c-.03 1.2-1.75 1.2-1.78.01v-8.45h1.78zm5.5 0c-.03 1.2-1.75 1.2-1.79.01v-8.45h1.79zm2.65-9.57h-12.6l2.55-11.51h7.51zm5.77-13.88s-1.33.76-2.8 1.61c-1.87 1.09-4 2.32-4 2.32l-.41-1.85 6.33-3.65c1.01-.54 1.88.96.88 1.56z" fill="#a2b190" fill-opacity="1" data-original-color="#000000ff" stroke="none" stroke-opacity="1"></path><path d="m43.53 37.53s-1.33.76-2.8 1.61c-1.87 1.09-4 2.32-4 2.32l-.41-1.85 6.33-3.65c1.01-.54 1.88.96.88 1.56z" fill="#f49af7" fill-opacity="0" data-original-color="#f49af7ff" stroke="none" stroke-opacity="1"></path><path d="m26.61 39.62-.41 1.84-6.85-3.97c-1.03-.6-.08-2.11.91-1.54z" fill="#f49af7" fill-opacity="0" data-original-color="#f49af7ff" stroke="none" stroke-opacity="1"></path><path d="m35.11 52.55v8.44c-.03 1.2-1.75 1.2-1.79.01v-8.45z" fill="#f49af7" fill-opacity="0" data-original-color="#f49af7ff" stroke="none" stroke-opacity="1"></path><path d="m29.61 52.55v8.44c-.03 1.2-1.75 1.2-1.78.01v-8.45z" fill="#f49af7" fill-opacity="0" data-original-color="#f49af7ff" stroke="none" stroke-opacity="1"></path><path d="m37.76 51.41h-12.6l2.55-11.51h7.51z" fill="#ec008c" fill-opacity="0" data-original-color="#ec008cff" stroke="none" stroke-opacity="1"></path><path d="m31.47 31.34c-4.37.03-4.39 6.52 0 6.57 4.38-.05 4.37-6.53 0-6.57zm-2.19 3.3c.08-2.9 4.27-2.91 4.37-.02-.08 2.88-4.27 2.88-4.37.02z" fill="#a2b190" fill-opacity="1" data-original-color="#000000ff" stroke="none" stroke-opacity="1"></path><path d="m33.64 34.62c-.08 2.88-4.27 2.88-4.37.02.08-2.9 4.27-2.91 4.37-.02z" fill="#f6cd0c" fill-opacity="0" data-original-color="#f6cd0cff" stroke="none" stroke-opacity="1"></path><path d="m19.91 1c-4.76.05-4.8 7.13 0 7.18 4.79-.05 4.79-7.13 0-7.18zm0 6.04c-3.31.02-3.28-4.93 0-4.91 3.29-.02 3.29 4.94 0 4.91z" fill="#a2b190" fill-opacity="1" data-original-color="#000000ff" stroke="none" stroke-opacity="1"></path><path d="m19.91 7.04c-3.31.02-3.28-4.93 0-4.91 3.29-.02 3.29 4.94 0 4.91z" fill="#f6cd0c" fill-opacity="0" data-original-color="#f6cd0cff" stroke="none" stroke-opacity="1"></path><path d="m53.47 20.81c-.66-2.51-1.49-5.56-2.3-8.61l7.73-6.19c.7-.51.96-1.39.66-2.26-.45-1.36-2.11-1.77-3.17-.92l-6.94 5.54-7.97 2.14-9.33.76-9.6-.76-7.97-2.14-6.97-5.54c-2.11-1.61-4.58 1.46-2.53 3.18l7.76 6.2-2.31 8.62-5.57 5.57c-1.37 1.41-.22 3.45 1.46 3.47.48 0 .96-.17 1.41-.6l6.63-6.63c.35.09.76.2 1.21.32v8.95c.01 1.32 1.03 2 2.03 2s2.01-.68 2.03-2.01v-8.5c.39-1.47 1.52-5.67 2.36-8.81 2.66.22 8.23.66 10.06.78 2.51-.2 7.68-.61 9.77-.78l2.37 8.84v8.48c.05 2.66 4 2.66 4.06-.01v-8.94c.4-.1.79-.22 1.2-.32l6.64 6.64c.43.42.92.6 1.39.6 1.68-.03 2.83-2.06 1.46-3.48l-5.58-5.58zm-47.68-15.69c-.92-.77.16-2.1 1.11-1.39l6.76 5.4-.51 1.88zm1.24 23.34c-.86.83-2.1-.41-1.27-1.27l5.44-5.43 2 .53zm11.57 3.41c-.01.66-.49.88-.9.88s-.9-.23-.9-.87v-8.63c.65.17 1.28.34 1.79.48v8.14zm.16-9.26c-2.22-.59-4.89-1.32-7.03-1.88l2.3-8.57.68-2.55 7.03 1.88c-.63 2.38-2.31 8.65-2.98 11.12zm14.24-8.46c-2.22.16-7.29-.51-10.44-.68h-.17c.1-.35.18-.67.26-.96l.22-.82 9.29.74 9-.74.48 1.77c-1.86.15-6.57.52-8.63.69zm24.09-10.43c.93-.71 2.04.66 1.12 1.39l-7.36 5.89c-.2-.76-.37-1.42-.51-1.88zm-9.88 28.14c-.02 1.19-1.78 1.2-1.79.01v-8.15c.56-.15 1.16-.31 1.79-.48zm-1.97-9.26c-.33-1.24-2.53-9.48-2.8-10.49l-.17-.63 7.03-1.88c.9 3.35 2.17 8.11 2.97 11.12-2.18.58-4.91 1.33-7.03 1.88zm12.99 5.84c-.28.28-.78.46-1.25.02l-6.18-6.18c.7-.19 1.38-.37 2-.53l5.44 5.43c.45.46.28.96-.01 1.26z" fill="#a2b190" fill-opacity="1" data-original-color="#000000ff" stroke="none" stroke-opacity="1"></path><g fill="#f6cff7"><path d="m58.21 5.12-7.36 5.89c-.2-.76-.37-1.42-.51-1.88l6.75-5.4c.93-.71 2.04.66 1.12 1.39z" fill="#f6cff7" fill-opacity="0" data-original-color="#f6cff7ff" stroke="none" stroke-opacity="1"></path><path d="m58.24 28.44c-.28.28-.78.46-1.25.02l-6.18-6.18c.7-.19 1.38-.37 2-.53l5.44 5.43c.45.46.28.96-.01 1.26z" fill="#f6cff7" fill-opacity="0" data-original-color="#f6cff7ff" stroke="none" stroke-opacity="1"></path><path d="m47.22 23.25v8.62c-.02 1.19-1.78 1.2-1.79.01v-8.15c.56-.15 1.16-.31 1.79-.48z" fill="#f6cff7" fill-opacity="0" data-original-color="#f6cff7ff" stroke="none" stroke-opacity="1"></path><path d="m18.6 23.72v8.14c-.01.66-.49.88-.9.88s-.9-.23-.9-.87v-8.63c.65.17 1.28.34 1.79.48z" fill="#f6cff7" fill-opacity="0" data-original-color="#f6cff7ff" stroke="none" stroke-opacity="1"></path><path d="m41.63 13.45c-1.86.15-6.57.52-8.63.69-2.22.16-7.29-.51-10.44-.68h-.17c.1-.35.18-.67.26-.96l.22-.82 9.29.74 9-.74.48 1.77z" fill="#f6cff7" fill-opacity="0" data-original-color="#f6cff7ff" stroke="none" stroke-opacity="1"></path><path d="m13.66 9.12-.51 1.88-7.36-5.89c-.92-.77.16-2.1 1.11-1.39z" fill="#f6cff7" fill-opacity="0" data-original-color="#f6cff7ff" stroke="none" stroke-opacity="1"></path><path d="m13.2 22.28-6.17 6.17c-.86.83-2.1-.41-1.27-1.27l5.44-5.43z" fill="#f6cff7" fill-opacity="0" data-original-color="#f6cff7ff" stroke="none" stroke-opacity="1"></path></g><path d="m52.27 20.72c-2.18.58-4.91 1.33-7.03 1.88-.33-1.24-2.53-9.48-2.8-10.49l-.17-.63 7.03-1.88c.9 3.35 2.17 8.11 2.97 11.12z" fill="#f78888" fill-opacity="0" data-original-color="#f78888ff" stroke="none" stroke-opacity="1"></path><path d="m21.74 11.48c-.63 2.38-2.31 8.65-2.98 11.12-2.22-.59-4.89-1.32-7.03-1.88l2.3-8.57.68-2.55z" fill="#f78888" fill-opacity="0" data-original-color="#f78888ff" stroke="none" stroke-opacity="1"></path><path d="m44.1 1c-4.79.05-4.77 7.13 0 7.18 4.76-.03 4.8-7.12 0-7.18zm0 6.04c-3.29.03-3.29-4.93 0-4.91 3.31-.02 3.28 4.94 0 4.91z" fill="#a2b190" fill-opacity="1" data-original-color="#000000ff" stroke="none" stroke-opacity="1"></path><path d="m44.1 7.04c-3.29.03-3.29-4.93 0-4.91 3.31-.02 3.28 4.94 0 4.91z" fill="#f6cd0c" fill-opacity="0" data-original-color="#f6cd0cff" stroke="none" stroke-opacity="1"></path></g></svg>