<svg xmlns="http://www.w3.org/2000/svg" xmlns:xlink="http://www.w3.org/1999/xlink" xmlns:svgjs="http://svgjs.dev/svgjs" clip-rule="evenodd" fill-rule="evenodd" stroke-linejoin="round" stroke-miterlimit="2" viewBox="0 0 510 510" width="300" height="300"><g width="100%" height="100%" transform="matrix(1,0,0,1,0,0)"><path d="m341.028 303.297c3.338 3.522 5.139 8.226 5.006 13.076-.132 4.851-2.187 9.45-5.712 12.784 0 0-41.059 38.845-41.059 38.845v46.16l15.313 57.621c3.405 12.81-4.22 25.955-17.03 29.359l-.343.091c-11.503 3.057-23.418-3.27-27.328-14.512l-15.342-44.116-14.836 43.621c-3.913 11.507-16.07 18.016-27.816 14.894-6.129-1.629-11.361-5.626-14.543-11.112-3.183-5.486-4.055-12.012-2.426-18.141l15.336-57.705v-46.163l-40.991-38.847c-3.519-3.335-5.569-7.932-5.7-12.779-.13-4.848 1.671-9.548 5.006-13.068l.002-.001c6.946-7.329 18.518-7.64 25.847-.694l30.757 29.149h59.193l30.832-29.169c7.329-6.934 18.892-6.619 25.832.705l.002.002c.017.019.023.024 0 0zm-47.42 184.406.342-.091c5.337-1.419 8.514-6.896 7.096-12.233l-15.549-58.505c-.156-.587-.234-1.191-.234-1.798v-50.087c0-1.924.791-3.763 2.189-5.085l43.249-40.917c.826-.781 1.308-1.859 1.339-2.995.029-1.088-.356-2.145-1.075-2.957l-.15-.161c-1.631-1.665-4.301-1.721-6-.114l-32.856 31.084c-1.299 1.229-3.021 1.915-4.81 1.915h-64.77c-1.791 0-3.514-.687-4.815-1.92l-32.782-31.068c-1.717-1.627-4.428-1.554-6.055.163l-.002.001c-.782.825-1.203 1.926-1.173 3.062.031 1.135.511 2.212 1.336 2.994l43.175 40.917c1.395 1.322 2.185 3.159 2.185 5.081v50.087c0 .607-.079 1.211-.235 1.798l-15.571 58.588c-.675 2.542-.314 5.247 1.006 7.521 1.319 2.274 3.488 3.931 6.029 4.607 4.63 1.23 9.423-1.335 10.966-5.871l21.391-62.896c2.787-7.923 10.847-6.91 13.235-.044l.002.004 22.028 63.339c1.503 4.323 6.085 6.757 10.509 5.581zm-32.537-68.92c.597 1.762.518 1.49 0 0zm-6.275-158.86c19.667 0 35.635 15.968 35.635 35.635 0 19.668-15.968 35.635-35.635 35.635s-35.635-15.967-35.635-35.635c0-19.667 15.968-35.635 35.635-35.635zm0 14c-11.941 0-21.635 9.695-21.635 21.635 0 11.941 9.694 21.635 21.635 21.635s21.635-9.694 21.635-21.635c0-11.94-9.694-21.635-21.635-21.635zm-147.924-145.841c49.667 0 89.99 40.323 89.99 89.99 0 49.666-40.323 89.99-89.99 89.99s-89.99-40.324-89.99-89.99c0-49.667 40.323-89.99 89.99-89.99zm0 14c-41.94 0-75.99 34.05-75.99 75.99s34.05 75.99 75.99 75.99 75.99-34.05 75.99-75.99-34.05-75.99-75.99-75.99zm-52.105 77.998c-2.874-6.192-4.46-12.392-4.46-18.559 0-15.84 14.027-29.118 31.781-29.118 11.388 0 18.66 3.64 24.785 11.037 6.122-7.397 13.394-11.037 24.783-11.037 17.754 0 31.781 13.278 31.781 29.118 0 6.252-1.63 12.538-4.581 18.816-.118.298-.257.587-.414.863-1.671 3.416-3.729 6.828-6.123 10.23-9.375 13.321-24.025 26.691-38.939 40.004-3.725 3.332-9.291 3.332-13.011.005-14.919-13.318-29.57-26.688-38.945-40.009-2.451-3.484-4.55-6.978-6.242-10.475-.158-.28-.296-.573-.415-.875zm92.967-9.325c1.093-3.072 1.703-6.145 1.703-9.234 0-8.577-8.168-15.118-17.781-15.118-8.046 0-12.509 3.252-16.592 9.54l-.008.012c-1.859 2.85-4.794 4.434-8.181 4.434-3.42 0-6.357-1.605-8.187-4.443-4.09-6.29-8.552-9.543-16.6-9.543-9.614 0-17.781 6.541-17.781 15.118 0 3.014.581 6.014 1.624 9.011h15.813l3.225-7.496c1.092-2.536 3.572-4.194 6.333-4.232 2.761-.039 5.287 1.55 6.448 4.055l5.388 11.621 3.425 6.773 2.943-6.417c1.02-2.224 3.127-3.754 5.558-4.035 2.43-.281 4.831.727 6.332 2.659l1.217 1.566 1.183-1.538c1.325-1.724 3.375-2.733 5.549-2.733zm-74.03 13.777c8.253 11.329 20.514 22.619 33.168 33.942 12.571-11.249 24.754-22.465 33.005-33.719-3.843 0-7.084 0-7.084 0l-4.602 5.984c-1.321 1.718-3.364 2.728-5.531 2.733-2.004.005-3.905-.848-5.231-2.328l-4.195 9.146c-1.12 2.443-3.541 4.029-6.228 4.08-2.688.052-5.167-1.44-6.381-3.839l-9.195-18.18c-1.298 1.368-3.122 2.181-5.077 2.181zm329.424-96.45c49.667 0 89.99 40.323 89.99 89.99 0 49.666-40.323 89.99-89.99 89.99s-89.99-40.324-89.99-89.99c0-49.667 40.323-89.99 89.99-89.99zm0 14c-41.94 0-75.99 34.05-75.99 75.99s34.05 75.99 75.99 75.99 75.99-34.05 75.99-75.99-34.05-75.99-75.99-75.99zm-59.014 86.952h-5.073c-3.866 0-7-3.134-7-7v-7.925c0-3.866 3.134-7 7-7h5.073v-2.102c0-4.918 1.954-9.635 5.432-13.113s8.195-5.432 13.113-5.432c4.919 0 9.636 1.954 13.114 5.432s5.432 8.195 5.432 13.113v2.102h43.847v-2.102c0-4.918 1.954-9.635 5.432-13.113s8.195-5.432 13.113-5.432c4.919 0 9.636 1.954 13.114 5.432s5.431 8.195 5.431 13.113v2.102h3.035c.791 0 1.575.018 2.348.052 3.742.166 6.69 3.248 6.69 6.993v7.835c0 3.746-2.948 6.828-6.69 6.993-.773.034-1.557.052-2.348.052h-3.035v2.102c0 4.919-1.953 9.636-5.431 13.113-3.478 3.478-8.195 5.432-13.114 5.432-4.918 0-9.635-1.954-13.113-5.432-3.478-3.477-5.432-8.194-5.432-13.113v-2.102h-43.847v2.102c0 4.919-1.954 9.636-5.432 13.113-3.478 3.478-8.195 5.432-13.114 5.432-4.918 0-9.635-1.954-13.113-5.432-3.478-3.477-5.432-8.194-5.432-13.113zm23.091 2.102v-26.129c0-1.205-.479-2.361-1.332-3.214-.852-.852-2.008-1.331-3.214-1.331-1.205 0-2.361.479-3.214 1.331-.852.853-1.331 2.009-1.331 3.214v26.129c0 1.206.479 2.362 1.331 3.214.853.852 2.009 1.331 3.214 1.331 1.206 0 2.362-.479 3.214-1.331.853-.852 1.332-2.008 1.332-3.214zm80.937 0v-26.129c0-1.205-.478-2.361-1.331-3.214-.852-.852-2.008-1.331-3.214-1.331-1.205 0-2.361.479-3.214 1.331-.852.853-1.331 2.009-1.331 3.214v26.129c0 1.206.479 2.362 1.331 3.214.853.852 2.009 1.331 3.214 1.331 1.206 0 2.362-.479 3.214-1.331.853-.852 1.331-2.008 1.331-3.214zm-193.346-223.137c49.667 0 89.99 40.323 89.99 89.99s-40.323 89.99-89.99 89.99-89.99-40.323-89.99-89.99 40.323-89.99 89.99-89.99zm0 14c-41.94 0-75.99 34.05-75.99 75.99s34.05 75.99 75.99 75.99 75.99-34.05 75.99-75.99-34.05-75.99-75.99-75.99zm13.262 42.303c1.052-.092 2.115-.138 3.188-.138 21.793 0 39.899 19.432 39.899 43.825 0 24.394-18.106 43.826-39.899 43.826-5.854 0-11.422-1.384-16.45-3.886-5.028 2.502-10.596 3.886-16.45 3.886-21.793 0-39.899-19.432-39.899-43.826 0-24.393 18.106-43.825 39.899-43.825 5.082 0 9.949 1.043 14.433 2.955.841-1.532 1.333-3.073 1.372-4.663.074-2.972-1.532-5.849-4.441-8.923-2.654-2.807-2.531-7.241.276-9.896s7.241-2.532 9.895.275c6.016 6.361 8.418 12.742 8.266 18.89-.012.499-.042.999-.089 1.5zm-17.069 17.669c-3.722-2.411-8.037-3.807-12.643-3.807-14.525 0-25.899 13.567-25.899 29.825s11.374 29.826 25.899 29.826c4.606 0 8.922-1.396 12.643-3.808 2.316-1.501 5.298-1.501 7.614 0 3.721 2.412 8.037 3.808 12.643 3.808 14.524 0 25.899-13.568 25.899-29.826s-11.375-29.825-25.899-29.825c-4.565 0-8.845 1.37-12.543 3.743-.485.326-1.004.586-1.541.778-1.522.547-3.19.549-4.712.008-.507-.18-.998-.421-1.461-.722z" fill="#a2b190" fill-opacity="1" data-original-color="#000000ff" stroke="none" stroke-opacity="1"></path></g></svg>