<svg xmlns="http://www.w3.org/2000/svg" xmlns:xlink="http://www.w3.org/1999/xlink" xmlns:svgjs="http://svgjs.dev/svgjs" id="line" viewBox="0 0 64 64" width="300" height="300"><g width="100%" height="100%" transform="matrix(1,0,0,1,0,0)"><path d="m59.73438 43.80872a21.15424 21.15424 0 0 0 -6.25574-4.26862 23.7886 23.7886 0 0 0 4.76648-8.01117 1.00061 1.00061 0 0 0 -.59571-1.22021 23.25847 23.25847 0 0 0 -8.00378-1.21778 24.313 24.313 0 0 0 -.30188-11.73047 1.00234 1.00234 0 0 0 -1.18652-.65869 24.29936 24.29936 0 0 0 -9.69037 5.57367 24.30733 24.30733 0 0 0 -5.77155-9.5722.99922.99922 0 0 0 -1.35742 0 24.30759 24.30759 0 0 0 -5.77319 9.57733 24.27631 24.27631 0 0 0 -9.70532-5.5788 1.00428 1.00428 0 0 0 -1.18555.65869 24.31346 24.31346 0 0 0 -.30188 11.731 23.15463 23.15463 0 0 0 -7.98914 1.21773 1.00064 1.00064 0 0 0 -.59472 1.21973 23.77818 23.77818 0 0 0 4.75738 8.00073 21.1759 21.1759 0 0 0 -6.27984 4.27906.99922.99922 0 0 0 0 1.35742c4.75616 5.22119 17.24 9.61761 27.72906 3.13586a23.04114 23.04114 0 0 0 11.8178 3.26062 22.692 22.692 0 0 0 15.92189-6.39648.99924.99924 0 0 0 0-1.35742zm-10.60529-12.70105a23.48771 23.48771 0 0 1 6.8504.76941c-1.9295 5.24353-9.04864 13.1513-18.67975 14.12377a25.57885 25.57885 0 0 0 11.82935-14.89318zm-41.07636.767a23.23608 23.23608 0 0 1 6.83551-.76721c1.59176 6.29745 7.44476 12.71371 11.82807 14.89297a23.31889 23.31889 0 0 1 -7.32178-2.19171 23.7803 23.7803 0 0 1 -11.3418-11.93409zm-1.59179 12.61178a21.20473 21.20473 0 0 1 5.56225-3.41681 25.49062 25.49062 0 0 0 15.80933 7.04669c-8.08557 3.40674-17.28369.19947-21.37158-3.62988zm9.86816-25.54245a23.80492 23.80492 0 0 1 8.612 5.52307c-1.976 7.25708.60785 16.16327 3.83338 20.35767-10.21241-4.96567-14.58179-16.87125-12.44538-25.88074zm15.68945-4.05273c7.61432 8.45473 7.57605 22.41012-.00415 30.84323-7.6134-8.45471-7.5764-22.41071.00415-30.84326zm7.07178 9.57031a23.84713 23.84713 0 0 1 8.59815-5.51709c2.13452 9.03171-2.23334 20.88058-12.41706 25.86151 3.2295-4.21439 5.79114-13.094 3.81891-20.34445zm4.72216 25.10107a20.92565 20.92565 0 0 1 -7.664-1.45184 25.761 25.761 0 0 0 15.853-7.03247 21.19155 21.19155 0 0 1 5.5376 3.40814 21.30534 21.30534 0 0 1 -13.7266 5.07614z" fill="#a2b190" fill-opacity="1" data-original-color="#000000ff" stroke="none" stroke-opacity="1"></path></g></svg>